{"glyphs":{"0":{"ha":980,"x_min":-1,"x_max":1004,"o":"m 154 488 q 408 54 67 54 q 829 488 742 54 q 581 916 914 916 q 154 488 239 916 m 75 484 q 593 977 174 977 q 906 484 1004 977 q 396 -7 808 -7 q 75 484 -1 -7 z "},"1":{"ha":410,"x_min":80,"x_max":347,"o":"m 80 0 l 258 889 l 156 889 l 164 929 l 347 977 l 151 0 l 80 0 z "},"2":{"ha":834,"x_min":-22,"x_max":838,"o":"m -22 0 l -9 61 q 710 692 666 473 q 470 916 755 916 q 174 841 321 916 l 187 909 q 482 977 333 977 q 781 692 838 977 q 96 61 731 441 l 655 61 l 643 0 l -22 0 z "},"3":{"ha":787,"x_min":-15,"x_max":794,"o":"m 165 936 q 445 977 309 977 q 741 712 794 977 q 536 492 707 538 q 653 271 688 448 q 248 -7 597 -7 q -15 34 113 -7 l -1 102 q 260 54 125 54 q 582 271 538 54 q 395 461 620 461 l 172 461 l 184 522 l 405 522 q 670 712 632 522 q 433 916 711 916 q 152 868 297 916 l 165 936 z "},"4":{"ha":827,"x_min":-9,"x_max":734,"o":"m 573 0 l 502 0 l 548 231 l -9 231 l 3 292 l 562 970 l 640 970 l 79 292 l 560 292 l 637 677 l 709 677 l 631 292 l 734 267 l 726 231 l 619 231 l 573 0 z "},"5":{"ha":777,"x_min":-12,"x_max":768,"o":"m 210 970 l 768 970 l 756 909 l 257 909 l 163 555 q 380 570 293 570 q 672 298 726 570 q 252 -7 611 -7 q -12 34 116 -7 l 2 102 q 271 54 128 54 q 601 298 552 54 q 368 509 643 509 q 77 475 216 509 l 210 970 z "},"6":{"ha":848,"x_min":-23,"x_max":808,"o":"m 53 373 q 625 999 128 750 l 645 947 q 203 581 312 768 q 453 624 334 624 q 747 319 808 624 q 334 -7 682 -7 q 53 373 -23 -7 m 118 377 q 353 54 54 54 q 679 319 626 54 q 441 563 728 563 q 172 517 296 563 q 118 377 136 469 z "},"7":{"ha":770,"x_min":105,"x_max":830,"o":"m 172 970 l 830 970 l 818 909 l 187 0 l 105 0 l 743 909 l 160 909 l 172 970 z "},"8":{"ha":854,"x_min":-23,"x_max":852,"o":"m 36 288 q 250 505 68 452 q 152 731 118 563 q 527 979 201 979 q 803 731 852 979 q 610 505 769 563 q 741 288 774 452 q 330 -7 682 -7 q 36 288 -23 -7 m 441 536 q 729 718 692 536 q 509 916 768 916 q 220 718 260 916 q 441 536 184 536 m 345 54 q 669 283 623 54 q 420 475 707 475 q 106 283 144 475 q 345 54 60 54 z "},"9":{"ha":821,"x_min":48,"x_max":880,"o":"m 804 599 q 232 -27 728 222 l 205 25 q 654 391 545 203 q 404 348 522 348 q 109 653 48 348 q 522 979 174 979 q 804 599 880 979 m 739 595 q 504 918 803 918 q 178 653 231 918 q 415 409 129 409 q 685 455 560 409 q 739 595 720 503 z "}," ":{"ha":339,"x_min":0,"x_max":0,"o":""},"!":{"ha":288,"x_min":12,"x_max":277,"o":"m 277 970 l 134 251 l 62 251 l 206 970 l 277 970 m 98 71 l 83 0 l 12 0 l 26 71 l 98 71 z "},"\"":{"ha":424,"x_min":134,"x_max":447,"o":"m 447 970 l 368 675 l 330 675 l 369 970 l 447 970 m 250 970 l 171 675 l 134 675 l 172 970 l 250 970 z "},"#":{"ha":1291,"x_min":29,"x_max":1255,"o":"m 524 614 l 390 317 l 700 317 l 833 614 l 524 614 m 176 -3 l 295 254 l 29 254 l 56 317 l 321 317 l 454 614 l 182 614 l 209 678 l 481 678 l 614 966 l 682 966 l 549 678 l 860 678 l 994 970 l 1062 970 l 928 678 l 1255 678 l 1229 614 l 902 614 l 769 317 l 1102 317 l 1076 254 l 742 254 l 623 -3 l 555 -3 l 674 254 l 363 254 l 244 -3 l 176 -3 z "},"$":{"ha":699,"x_min":31,"x_max":669,"o":"m 397 840 l 422 970 l 487 970 l 461 841 q 669 807 566 838 l 655 739 q 431 780 545 780 q 177 637 205 780 q 305 515 153 515 l 393 515 q 594 332 631 515 q 319 132 558 151 l 293 0 l 229 0 l 254 129 q 31 163 141 130 l 45 231 q 270 190 155 190 q 523 332 494 190 q 380 448 546 448 l 292 448 q 106 637 68 448 q 397 840 143 825 z "},"%":{"ha":924,"x_min":-22,"x_max":947,"o":"m 63 0 l -22 0 l 862 970 l 947 970 l 63 0 m 206 802 q 303 682 182 682 q 445 802 421 682 q 351 920 469 920 q 206 802 230 920 m 138 800 q 362 977 174 977 q 513 800 548 977 q 292 625 477 625 q 138 800 103 625 m 480 170 q 577 50 456 50 q 719 170 695 50 q 625 288 743 288 q 480 170 504 288 m 412 169 q 636 345 448 345 q 787 169 822 345 q 566 -7 751 -7 q 412 169 377 -7 z "},"&":{"ha":878,"x_min":-22,"x_max":880,"o":"m 120 709 q 518 970 172 970 q 755 936 644 970 l 743 875 q 508 909 625 909 q 192 712 231 909 q 381 522 154 522 l 699 522 l 722 639 l 771 639 l 763 522 l 880 522 l 867 461 l 758 461 l 732 332 q 313 -2 665 -2 q 31 267 -22 -2 q 228 493 65 435 q 120 709 85 537 m 370 461 q 103 271 142 461 q 320 61 62 61 q 661 334 606 61 l 686 461 l 370 461 z "},"'":{"ha":227,"x_min":134,"x_max":250,"o":"m 250 970 l 171 675 l 134 675 l 172 970 l 250 970 z "},"(":{"ha":356,"x_min":-12,"x_max":379,"o":"m 379 970 q 121 356 182 663 q 134 -258 59 49 l 62 -258 q 50 356 -12 49 q 308 970 111 663 l 379 970 z "},")":{"ha":356,"x_min":-73,"x_max":318,"o":"m 243 970 q 256 356 318 663 q -2 -258 195 49 l -73 -258 q 185 356 123 49 q 172 970 247 663 l 243 970 z "},"*":{"ha":563,"x_min":134,"x_max":549,"o":"m 327 970 l 433 970 l 381 812 l 536 881 l 549 781 l 389 752 l 473 637 l 377 574 l 328 713 l 224 575 l 152 635 l 285 751 l 134 780 l 187 882 l 316 812 l 327 970 z "},"+":{"ha":658,"x_min":43,"x_max":564,"o":"m 279 387 l 324 610 l 392 610 l 347 387 l 564 387 l 552 326 l 335 326 l 290 102 l 222 102 l 267 326 l 43 326 l 56 387 l 279 387 z "},",":{"ha":207,"x_min":-113,"x_max":119,"o":"m 119 125 l -42 -170 l -113 -170 l 47 125 l 119 125 z "},"-":{"ha":488,"x_min":43,"x_max":395,"o":"m 395 387 l 382 326 l 43 326 l 56 387 l 395 387 z "},".":{"ha":241,"x_min":-22,"x_max":87,"o":"m 87 85 l 70 0 l -22 0 l -5 85 l 87 85 z "},"/":{"ha":668,"x_min":-73,"x_max":691,"o":"m 5 0 l -73 0 l 613 970 l 691 970 l 5 0 z "},":":{"ha":268,"x_min":5,"x_max":239,"o":"m 239 712 l 222 627 l 131 627 l 148 712 l 239 712 m 114 85 l 97 0 l 5 0 l 22 85 l 114 85 z "},";":{"ha":370,"x_min":-56,"x_max":307,"o":"m 176 125 l 16 -170 l -56 -170 l 105 125 l 176 125 m 307 712 l 290 627 l 199 627 l 216 712 l 307 712 z "},"<":{"ha":760,"x_min":42,"x_max":724,"o":"m 42 319 l 57 393 l 724 678 l 709 604 l 108 353 l 610 109 l 595 34 l 42 319 z "},"=":{"ha":658,"x_min":23,"x_max":585,"o":"m 544 285 l 532 224 l 23 224 l 35 285 l 544 285 m 585 488 l 572 427 l 64 427 l 76 488 l 585 488 z "},">":{"ha":760,"x_min":-15,"x_max":667,"o":"m -15 34 l 0 109 l 600 353 l 99 604 l 114 678 l 667 393 l 652 319 l -15 34 z "},"?":{"ha":770,"x_min":107,"x_max":793,"o":"m 193 71 l 178 0 l 107 0 l 121 71 l 193 71 m 165 936 q 444 970 315 970 q 740 705 793 970 q 350 441 687 441 l 267 441 l 229 251 l 157 251 l 208 502 l 360 502 q 669 705 628 502 q 431 909 709 909 q 153 875 302 909 l 165 936 z "},"@":{"ha":1472,"x_min":-39,"x_max":1462,"o":"m 962 632 q 779 648 874 648 q 467 355 525 648 q 583 68 409 68 q 884 240 749 68 l 962 632 m 920 60 q 994 -41 899 -41 q 1269 366 1187 -41 q 832 916 1379 916 q 157 366 267 916 q 563 -197 44 -197 l 551 -258 q 85 366 -39 -258 q 834 977 208 977 q 1340 366 1462 977 q 984 -102 1246 -102 q 846 50 816 -102 l 870 170 q 569 0 729 0 q 397 353 326 0 q 798 712 469 712 q 1044 683 942 712 l 920 60 z "},"A":{"ha":1012,"x_min":-73,"x_max":892,"o":"m 8 0 l -73 0 l 560 970 l 645 970 l 892 0 l 812 0 l 733 326 l 298 326 l 332 387 l 719 387 l 592 914 l 8 0 z "},"B":{"ha":902,"x_min":12,"x_max":897,"o":"m 12 0 l 206 970 l 620 970 q 851 744 897 970 q 604 507 819 578 q 771 280 809 471 q 412 0 715 0 l 12 0 m 416 61 q 694 278 651 61 q 439 470 733 470 l 385 470 l 395 518 q 778 739 740 549 q 603 909 812 909 l 265 909 l 96 61 l 416 61 z "},"C":{"ha":953,"x_min":-23,"x_max":945,"o":"m 765 34 q 486 -7 625 -7 q 78 498 -23 -7 q 682 977 174 977 q 945 936 821 977 l 933 875 q 684 916 809 916 q 149 498 233 916 q 511 54 60 54 q 777 95 637 54 l 765 34 z "},"D":{"ha":997,"x_min":12,"x_max":1027,"o":"m 363 61 q 857 511 767 61 q 533 909 937 909 l 265 909 l 96 61 l 363 61 m 12 0 l 206 970 l 552 970 q 935 511 1027 970 q 351 0 833 0 l 12 0 z "},"E":{"ha":846,"x_min":12,"x_max":843,"o":"m 843 970 l 831 909 l 265 909 l 188 522 l 730 522 l 718 461 l 176 461 l 96 61 l 671 61 l 659 0 l 12 0 l 206 970 l 843 970 z "},"F":{"ha":796,"x_min":12,"x_max":843,"o":"m 843 970 l 831 909 l 265 909 l 188 522 l 730 522 l 718 461 l 176 461 l 83 0 l 12 0 l 206 970 l 843 970 z "},"G":{"ha":953,"x_min":-23,"x_max":945,"o":"m 766 38 q 497 -7 633 -7 q 78 498 -23 -7 q 682 977 174 977 q 945 936 821 977 l 933 875 q 684 916 809 916 q 149 498 233 916 q 498 54 60 54 q 704 84 588 54 l 775 441 l 846 441 l 766 38 z "},"H":{"ha":1021,"x_min":12,"x_max":1010,"o":"m 12 0 l 206 970 l 277 970 l 188 522 l 849 522 l 939 970 l 1010 970 l 816 0 l 745 0 l 837 461 l 176 461 l 83 0 l 12 0 z "},"I":{"ha":356,"x_min":46,"x_max":311,"o":"m 311 970 l 117 0 l 46 0 l 240 970 l 311 970 z "},"J":{"ha":441,"x_min":-73,"x_max":430,"o":"m 430 970 l 292 279 q -73 0 236 0 l -60 61 q 220 279 177 61 l 359 970 l 430 970 z "},"K":{"ha":899,"x_min":12,"x_max":943,"o":"m 277 970 l 83 0 l 12 0 l 206 970 l 277 970 m 943 970 l 378 494 l 785 0 l 686 0 l 304 473 l 313 522 l 838 970 l 943 970 z "},"L":{"ha":775,"x_min":12,"x_max":657,"o":"m 277 970 l 96 61 l 657 61 l 645 0 l 12 0 l 206 970 l 277 970 z "},"M":{"ha":1200,"x_min":12,"x_max":1190,"o":"m 12 0 l 206 970 l 277 970 l 538 83 l 1125 970 l 1190 970 l 996 0 l 931 0 l 1099 839 l 546 0 l 488 0 l 245 846 l 77 0 l 12 0 z "},"N":{"ha":1021,"x_min":12,"x_max":1010,"o":"m 12 0 l 206 970 l 284 970 l 772 104 l 945 970 l 1010 970 l 816 0 l 758 0 l 254 890 l 77 0 l 12 0 z "},"O":{"ha":1116,"x_min":-23,"x_max":1140,"o":"m 154 488 q 476 54 67 54 q 964 488 878 54 q 648 916 1050 916 q 154 488 239 916 m 75 484 q 661 977 174 977 q 1042 484 1140 977 q 464 -7 943 -7 q 75 484 -23 -7 z "},"P":{"ha":857,"x_min":12,"x_max":897,"o":"m 12 0 l 206 970 l 613 970 q 843 703 897 970 q 323 369 791 441 l 323 434 q 763 698 721 488 q 589 907 804 907 l 264 907 l 83 0 l 12 0 z "},"Q":{"ha":1116,"x_min":-18,"x_max":1140,"o":"m 476 54 q 964 488 878 54 q 648 916 1050 916 q 153 488 239 916 q 476 54 67 54 m 416 -5 q 75 484 -18 18 q 661 977 174 977 q 1041 484 1140 977 q 489 -7 945 6 q 721 -203 519 -201 q 847 -183 789 -203 l 835 -244 q 709 -264 777 -264 q 416 -5 434 -264 z "},"R":{"ha":838,"x_min":12,"x_max":869,"o":"m 12 0 l 206 970 l 606 970 q 823 737 869 970 q 480 452 779 522 l 718 0 l 633 0 l 401 450 l 411 499 q 743 732 705 542 q 582 907 777 907 l 264 907 l 83 0 l 12 0 z "},"S":{"ha":888,"x_min":12,"x_max":878,"o":"m 12 34 l 27 109 q 353 54 169 54 q 703 285 657 54 q 539 454 737 454 l 340 454 q 118 699 69 454 q 570 977 174 977 q 878 936 733 977 l 864 868 q 558 916 721 916 q 189 699 233 916 q 353 522 154 522 l 553 522 q 774 285 822 522 q 340 -7 716 -7 q 12 34 157 -7 z "},"T":{"ha":743,"x_min":92,"x_max":833,"o":"m 833 970 l 821 909 l 489 909 l 307 0 l 236 0 l 418 909 l 92 909 l 104 970 l 833 970 z "},"U":{"ha":997,"x_min":11,"x_max":986,"o":"m 87 374 l 206 970 l 277 970 l 158 374 q 413 54 94 54 q 795 374 732 54 l 915 970 l 986 970 l 867 374 q 401 -7 791 -7 q 87 374 11 -7 z "},"V":{"ha":1012,"x_min":121,"x_max":1086,"o":"m 1086 970 l 467 0 l 355 0 l 121 970 l 195 970 l 419 55 l 1005 970 l 1086 970 z "},"W":{"ha":1267,"x_min":100,"x_max":1308,"o":"m 121 970 l 189 970 l 173 68 l 667 970 l 738 970 l 878 60 l 1246 970 l 1308 970 l 918 0 l 815 0 l 686 886 l 201 0 l 100 0 l 121 970 z "},"X":{"ha":895,"x_min":-73,"x_max":969,"o":"m 406 485 l 121 970 l 203 970 l 456 538 l 881 970 l 969 970 l 491 485 l 775 0 l 694 0 l 441 431 l 16 0 l -73 0 l 406 485 z "},"Y":{"ha":848,"x_min":121,"x_max":922,"o":"m 121 970 l 206 970 l 408 407 l 844 970 l 922 970 l 432 339 l 364 0 l 293 0 l 361 339 l 121 970 z "},"Z":{"ha":861,"x_min":-5,"x_max":867,"o":"m 867 970 l 855 909 l 98 61 l 672 61 l 660 0 l -5 0 l 6 54 l 777 909 l 191 909 l 203 970 l 867 970 z "},"[":{"ha":383,"x_min":-39,"x_max":457,"o":"m 457 970 l 445 909 l 258 909 l 37 -197 l 224 -197 l 212 -258 l -39 -258 l 206 970 l 457 970 z "},"\\":{"ha":661,"x_min":121,"x_max":490,"o":"m 121 970 l 193 970 l 490 0 l 419 0 l 121 970 z "},"]":{"ha":383,"x_min":-124,"x_max":372,"o":"m 372 970 l 127 -258 l -124 -258 l -112 -197 l 75 -197 l 296 909 l 109 909 l 121 970 l 372 970 z "},"^":{"ha":726,"x_min":39,"x_max":684,"o":"m 410 970 l 511 970 l 684 475 l 609 475 l 450 931 l 114 475 l 39 475 l 410 970 z "},"_":{"ha":726,"x_min":-85,"x_max":606,"o":"m 606 0 l 593 -61 l -85 -61 l -73 0 l 606 0 z "},"`":{"ha":355,"x_min":165,"x_max":352,"o":"m 352 808 l 295 808 l 165 970 l 273 970 l 352 808 z "},"a":{"ha":764,"x_min":-22,"x_max":696,"o":"m 614 632 q 431 648 526 648 q 119 355 177 648 q 235 68 61 68 q 536 240 401 68 l 614 632 m 559 0 l 502 0 l 522 170 q 221 0 381 0 q 49 353 -22 0 q 450 712 121 712 q 696 683 594 712 l 559 0 z "},"b":{"ha":765,"x_min":18,"x_max":736,"o":"m 100 83 q 300 64 212 64 q 602 382 538 64 q 486 644 654 644 q 178 472 341 644 l 100 83 m 206 970 l 277 970 l 192 543 q 507 712 361 712 q 670 377 736 712 q 294 0 594 0 q 18 29 140 0 l 206 970 z "},"c":{"ha":658,"x_min":-22,"x_max":639,"o":"m 518 88 q 277 0 412 0 q 51 363 -22 0 q 453 712 121 712 q 639 692 555 712 l 627 631 q 448 651 536 651 q 129 363 186 651 q 296 61 68 61 q 532 156 418 61 l 518 88 z "},"d":{"ha":764,"x_min":-22,"x_max":753,"o":"m 559 0 l 502 0 l 522 170 q 221 0 381 0 q 49 353 -22 0 q 450 712 121 712 q 628 699 549 712 l 682 970 l 753 970 l 559 0 m 614 632 q 431 648 526 648 q 119 355 177 648 q 235 68 61 68 q 536 240 401 68 l 614 632 z "},"e":{"ha":729,"x_min":-22,"x_max":701,"o":"m 441 712 q 663 526 701 712 q 374 334 625 334 l 116 334 q 317 61 62 61 q 572 156 458 61 l 558 88 q 304 0 446 0 q 51 364 -22 0 q 441 712 121 712 m 129 397 l 385 397 q 593 528 566 397 q 429 652 617 652 q 129 397 192 652 z "},"f":{"ha":445,"x_min":-114,"x_max":618,"o":"m 226 712 l 494 712 l 481 651 l 214 651 l 94 54 q -72 -250 51 -161 l -114 -205 q 23 54 -18 -148 l 161 747 q 465 1005 213 1005 q 618 978 553 1005 l 606 917 q 452 944 545 944 q 232 745 272 944 l 226 712 z "},"g":{"ha":764,"x_min":-33,"x_max":696,"o":"m 614 632 q 431 648 526 648 q 119 355 177 648 q 235 68 61 68 q 536 240 401 68 l 614 632 m 559 0 q 194 -258 508 -258 q -33 -224 62 -258 l -20 -163 q 208 -197 77 -197 q 488 0 449 -197 l 522 170 q 221 0 381 0 q 49 353 -22 0 q 450 712 121 712 q 696 683 594 712 l 559 0 z "},"h":{"ha":790,"x_min":12,"x_max":728,"o":"m 12 0 l 206 970 l 277 970 l 183 499 q 529 712 351 712 q 686 505 728 712 l 585 0 l 514 0 l 615 505 q 513 648 644 648 q 168 422 337 648 l 83 0 l 12 0 z "},"i":{"ha":315,"x_min":26,"x_max":298,"o":"m 298 970 l 281 888 l 197 888 l 213 970 l 298 970 m 239 712 l 97 0 l 26 0 l 168 712 l 239 712 z "},"j":{"ha":315,"x_min":-100,"x_max":298,"o":"m 298 970 l 281 888 l 197 888 l 213 970 l 298 970 m 239 712 l 108 54 q -58 -250 64 -161 l -100 -205 q 37 54 -4 -148 l 168 712 l 239 712 z "},"k":{"ha":753,"x_min":5,"x_max":731,"o":"m 5 0 l 199 970 l 271 970 l 181 521 q 533 712 350 712 q 694 527 731 712 q 408 280 663 371 l 606 0 l 519 0 l 339 268 l 348 311 q 622 521 595 386 q 505 651 648 651 q 167 452 340 651 l 77 0 l 5 0 z "},"l":{"ha":315,"x_min":26,"x_max":291,"o":"m 291 970 l 97 0 l 26 0 l 220 970 l 291 970 z "},"m":{"ha":1217,"x_min":12,"x_max":1155,"o":"m 12 0 l 155 712 l 212 712 l 184 500 q 490 712 322 712 q 646 506 687 712 q 957 712 790 712 q 1109 485 1155 712 l 1013 0 l 941 0 l 1038 485 q 943 648 1071 648 q 635 420 768 648 l 551 0 l 480 0 l 577 485 q 477 648 610 648 q 168 420 310 648 l 83 0 l 12 0 z "},"n":{"ha":790,"x_min":12,"x_max":728,"o":"m 12 0 l 155 712 l 212 712 l 183 499 q 529 712 351 712 q 686 505 728 712 l 585 0 l 514 0 l 615 505 q 513 648 644 648 q 168 422 337 648 l 83 0 l 12 0 z "},"o":{"ha":787,"x_min":-22,"x_max":760,"o":"m 121 359 q 308 54 60 54 q 616 359 555 54 q 429 658 676 658 q 121 359 181 658 m 50 356 q 441 719 122 719 q 687 356 760 719 q 296 -6 614 -6 q 50 356 -22 -6 z "},"p":{"ha":765,"x_min":-39,"x_max":736,"o":"m 100 83 q 300 64 212 64 q 602 382 538 64 q 486 644 654 644 q 178 472 341 644 l 100 83 m 155 711 l 212 711 l 192 543 q 507 712 361 712 q 669 377 736 712 q 294 0 594 0 q 87 16 182 0 l 32 -258 l -39 -258 l 155 711 z "},"q":{"ha":764,"x_min":-22,"x_max":696,"o":"m 614 632 q 431 648 526 648 q 119 355 177 648 q 235 68 61 68 q 536 240 401 68 l 614 632 m 508 -258 l 437 -258 l 522 170 q 221 0 381 0 q 49 353 -22 0 q 450 712 121 712 q 696 683 594 712 l 508 -258 z "},"r":{"ha":465,"x_min":12,"x_max":487,"o":"m 12 0 l 155 712 l 212 712 l 175 458 q 487 712 321 712 l 473 642 q 163 395 311 642 l 83 0 l 12 0 z "},"s":{"ha":699,"x_min":5,"x_max":643,"o":"m 5 34 l 19 102 q 244 61 130 61 q 497 203 469 61 q 354 319 520 319 l 266 319 q 80 509 42 319 q 417 712 121 712 q 643 678 531 712 l 629 610 q 405 651 519 651 q 151 509 180 651 q 279 387 127 387 l 368 387 q 568 203 605 387 q 232 0 528 0 q 5 34 117 0 z "},"t":{"ha":425,"x_min":9,"x_max":415,"o":"m 175 827 l 218 827 l 208 712 l 415 712 l 403 651 l 209 651 l 119 201 q 194 61 91 61 l 285 61 l 273 0 l 183 0 q 48 192 9 0 l 175 827 z "},"u":{"ha":790,"x_min":12,"x_max":728,"o":"m 728 712 l 585 0 l 528 0 l 557 213 q 197 0 389 0 q 54 207 12 0 l 155 712 l 226 712 l 125 207 q 214 64 96 64 q 572 290 403 64 l 656 712 l 728 712 z "},"v":{"ha":699,"x_min":53,"x_max":738,"o":"m 53 712 l 134 712 l 264 62 l 656 712 l 738 712 l 292 0 l 210 0 l 53 712 z "},"w":{"ha":1136,"x_min":-15,"x_max":1070,"o":"m 195 712 l 267 712 q 127 353 168 559 q 241 61 68 61 q 511 373 448 61 l 578 712 l 650 712 l 582 373 q 726 61 519 61 q 958 353 899 61 q 962 712 999 559 l 1033 712 q 1029 353 1070 559 q 714 0 958 0 q 516 230 507 0 q 229 0 436 0 q 56 353 -15 0 q 195 712 97 559 z "},"x":{"ha":685,"x_min":-73,"x_max":707,"o":"m 275 356 l 70 712 l 151 712 l 325 411 l 619 712 l 707 712 l 360 356 l 565 0 l 484 0 l 310 301 l 16 0 l -73 0 l 275 356 z "},"y":{"ha":790,"x_min":-7,"x_max":728,"o":"m 557 213 q 197 0 389 0 q 54 207 12 0 l 155 712 l 226 712 l 125 207 q 214 64 96 64 q 572 290 403 64 l 656 712 l 728 712 l 585 0 q 220 -258 534 -258 q -7 -224 88 -258 l 5 -163 q 233 -197 102 -197 q 514 0 475 -197 l 557 213 z "},"z":{"ha":671,"x_min":-22,"x_max":643,"o":"m 134 712 l 643 712 l 631 651 l 74 61 l 499 61 l 487 0 l -22 0 l -9 61 l 546 651 l 122 651 l 134 712 z "},"{":{"ha":400,"x_min":43,"x_max":474,"o":"m 474 970 q 321 646 362 850 q 134 356 273 407 q 205 66 253 305 q 229 -258 164 -138 l 157 -258 q 134 66 93 -138 q 43 326 186 326 l 56 387 q 250 646 198 387 q 403 970 291 850 l 474 970 z "},"|":{"ha":288,"x_min":-39,"x_max":277,"o":"m 277 970 l 32 -258 l -39 -258 l 206 970 l 277 970 z "},"}":{"ha":400,"x_min":-124,"x_max":307,"o":"m 193 970 q 216 646 257 850 q 307 387 164 387 l 294 326 q 100 66 152 326 q -53 -258 59 -138 l -124 -258 q 29 66 -12 -138 q 216 356 77 305 q 144 646 97 407 q 121 970 186 850 l 193 970 z "},"~":{"ha":658,"x_min":41,"x_max":567,"o":"m 53 373 q 171 414 100 414 q 303 387 229 414 q 438 359 377 359 q 567 400 512 359 l 555 339 q 437 298 507 298 q 304 326 378 298 q 170 353 231 353 q 41 312 96 353 l 53 373 z "},"Ä":{"ha":1012,"x_min":-73,"x_max":892,"o":"m 8 0 l -73 0 l 560 970 l 645 970 l 892 0 l 812 0 l 733 326 l 298 326 l 332 387 l 719 387 l 592 914 l 8 0 m 796 1214 l 779 1126 l 687 1126 l 705 1214 l 796 1214 m 579 1214 l 562 1126 l 470 1126 l 488 1214 l 579 1214 z "},"Å":{"ha":1012,"x_min":-73,"x_max":892,"o":"m 612 1005 q 722 1098 703 1005 q 649 1189 740 1189 q 537 1098 555 1189 q 612 1005 518 1005 m 10 0 l -73 0 l 557 966 q 482 1097 460 985 q 657 1232 509 1232 q 775 1097 802 1232 q 646 965 753 983 l 892 0 l 814 0 l 735 326 l 300 326 l 334 387 l 721 387 l 594 914 l 10 0 z "},"Ç":{"ha":953,"x_min":-17,"x_max":945,"o":"m 427 -5 q 78 498 -17 23 q 682 977 174 977 q 945 936 821 977 l 933 875 q 684 916 809 916 q 149 498 233 916 q 511 54 60 54 q 777 95 637 54 l 765 34 q 492 -7 628 -6 l 459 -52 q 587 -169 611 -52 q 401 -286 564 -286 q 261 -252 328 -286 l 273 -193 q 411 -233 338 -233 q 524 -169 511 -233 q 454 -105 537 -105 l 350 -105 l 427 -5 z "},"É":{"ha":846,"x_min":12,"x_max":843,"o":"m 843 970 l 831 909 l 265 909 l 188 522 l 730 522 l 718 461 l 176 461 l 96 61 l 671 61 l 659 0 l 12 0 l 206 970 l 843 970 m 608 1227 l 716 1227 l 522 1065 l 465 1065 l 608 1227 z "},"Ñ":{"ha":1021,"x_min":12,"x_max":1010,"o":"m 12 0 l 206 970 l 284 970 l 772 104 l 945 970 l 1010 970 l 816 0 l 758 0 l 254 890 l 77 0 l 12 0 m 473 1196 q 568 1227 520 1227 q 639 1210 603 1227 q 713 1192 675 1192 q 818 1223 764 1192 l 806 1162 q 711 1131 759 1131 q 640 1149 676 1131 q 566 1166 604 1166 q 461 1135 515 1166 l 473 1196 z "},"Ö":{"ha":1116,"x_min":-23,"x_max":1140,"o":"m 154 488 q 476 54 67 54 q 964 488 878 54 q 648 916 1050 916 q 154 488 239 916 m 75 484 q 661 977 174 977 q 1042 484 1140 977 q 464 -7 943 -7 q 75 484 -23 -7 m 854 1214 l 837 1126 l 745 1126 l 763 1214 l 854 1214 m 637 1214 l 620 1126 l 528 1126 l 546 1214 l 637 1214 z "},"Ü":{"ha":997,"x_min":11,"x_max":986,"o":"m 87 374 l 206 970 l 277 970 l 158 374 q 413 54 94 54 q 795 374 732 54 l 915 970 l 986 970 l 867 374 q 401 -7 791 -7 q 87 374 11 -7 m 795 1214 l 778 1126 l 686 1126 l 704 1214 l 795 1214 m 578 1214 l 561 1126 l 469 1126 l 487 1214 l 578 1214 z "},"á":{"ha":764,"x_min":-22,"x_max":696,"o":"m 614 632 q 431 648 526 648 q 119 355 177 648 q 235 68 61 68 q 536 240 401 68 l 614 632 m 559 0 l 502 0 l 522 170 q 221 0 381 0 q 49 353 -22 0 q 450 712 121 712 q 696 683 594 712 l 559 0 m 535 970 l 643 970 l 448 808 l 391 808 l 535 970 z "},"à":{"ha":764,"x_min":-22,"x_max":696,"o":"m 614 632 q 431 648 526 648 q 119 355 177 648 q 235 68 61 68 q 536 240 401 68 l 614 632 m 559 0 l 502 0 l 522 170 q 221 0 381 0 q 49 353 -22 0 q 450 712 121 712 q 696 683 594 712 l 559 0 m 537 808 l 480 808 l 351 970 l 458 970 l 537 808 z "},"â":{"ha":764,"x_min":-22,"x_max":696,"o":"m 614 632 q 431 648 526 648 q 119 355 177 648 q 235 68 61 68 q 536 240 401 68 l 614 632 m 559 0 l 502 0 l 522 170 q 221 0 381 0 q 49 353 -22 0 q 450 712 121 712 q 696 683 594 712 l 559 0 m 460 970 l 534 970 l 631 793 l 564 793 l 487 925 l 360 793 l 292 793 l 460 970 z "},"ä":{"ha":764,"x_min":-22,"x_max":696,"o":"m 614 632 q 431 648 526 648 q 119 355 177 648 q 235 68 61 68 q 536 240 401 68 l 614 632 m 559 0 l 502 0 l 522 170 q 221 0 381 0 q 49 353 -22 0 q 450 712 121 712 q 696 683 594 712 l 559 0 m 648 956 l 631 868 l 539 868 l 557 956 l 648 956 m 431 956 l 414 868 l 322 868 l 340 956 l 431 956 z "},"ã":{"ha":764,"x_min":-22,"x_max":696,"o":"m 614 632 q 431 648 526 648 q 119 355 177 648 q 235 68 61 68 q 536 240 401 68 l 614 632 m 559 0 l 502 0 l 522 170 q 221 0 381 0 q 49 353 -22 0 q 450 712 121 712 q 696 683 594 712 l 559 0 m 321 939 q 416 970 368 970 q 487 952 451 970 q 561 935 523 935 q 666 966 612 935 l 654 905 q 559 873 607 873 q 488 891 524 873 q 414 909 452 909 q 309 878 363 909 l 321 939 z "},"å":{"ha":764,"x_min":-22,"x_max":696,"o":"m 614 632 q 431 648 526 648 q 119 355 177 648 q 235 68 61 68 q 536 240 401 68 l 614 632 m 559 0 l 502 0 l 522 170 q 221 0 381 0 q 49 353 -22 0 q 450 712 121 712 q 696 683 594 712 l 559 0 m 395 924 q 471 831 377 831 q 580 924 562 831 q 507 1015 598 1015 q 395 924 414 1015 m 341 923 q 516 1059 368 1059 q 634 923 661 1059 q 462 788 607 788 q 341 923 314 788 z "},"ç":{"ha":658,"x_min":-17,"x_max":639,"o":"m 239 1 q 51 363 -17 24 q 453 712 121 712 q 639 692 555 712 l 627 631 q 448 651 536 651 q 129 363 186 651 q 296 61 68 61 q 532 156 418 61 l 518 88 q 305 1 424 9 l 267 -52 q 395 -169 418 -52 q 208 -286 372 -286 q 68 -252 135 -286 l 80 -193 q 218 -233 145 -233 q 332 -169 319 -233 q 261 -105 345 -105 l 157 -105 l 239 1 z "},"é":{"ha":729,"x_min":-22,"x_max":701,"o":"m 441 712 q 663 526 701 712 q 374 334 625 334 l 116 334 q 317 61 62 61 q 572 156 458 61 l 558 88 q 304 0 446 0 q 51 364 -22 0 q 441 712 121 712 m 129 397 l 385 397 q 593 528 566 397 q 429 652 617 652 q 129 397 192 652 m 507 970 l 615 970 l 420 808 l 363 808 l 507 970 z "},"è":{"ha":729,"x_min":-22,"x_max":701,"o":"m 441 712 q 663 526 701 712 q 374 334 625 334 l 116 334 q 317 61 62 61 q 572 156 458 61 l 558 88 q 304 0 446 0 q 51 364 -22 0 q 441 712 121 712 m 129 397 l 385 397 q 593 528 566 397 q 429 652 617 652 q 129 397 192 652 m 536 808 l 479 808 l 350 970 l 458 970 l 536 808 z "},"ê":{"ha":729,"x_min":-22,"x_max":701,"o":"m 441 712 q 663 526 701 712 q 374 334 625 334 l 116 334 q 317 61 62 61 q 572 156 458 61 l 558 88 q 304 0 446 0 q 51 364 -22 0 q 441 712 121 712 m 129 397 l 385 397 q 593 528 566 397 q 429 652 617 652 q 129 397 192 652 m 432 970 l 507 970 l 604 793 l 536 793 l 459 925 l 332 793 l 264 793 l 432 970 z "},"ë":{"ha":729,"x_min":-22,"x_max":701,"o":"m 441 712 q 663 526 701 712 q 374 334 625 334 l 116 334 q 317 61 62 61 q 572 156 458 61 l 558 88 q 304 0 446 0 q 51 364 -22 0 q 441 712 121 712 m 129 397 l 385 397 q 593 528 566 397 q 429 652 617 652 q 129 397 192 652 m 627 956 l 610 868 l 518 868 l 536 956 l 627 956 m 410 956 l 393 868 l 301 868 l 319 956 l 410 956 z "},"í":{"ha":302,"x_min":19,"x_max":395,"o":"m 233 712 l 90 0 l 19 0 l 161 712 l 233 712 m 287 970 l 395 970 l 200 808 l 143 808 l 287 970 z "},"ì":{"ha":302,"x_min":19,"x_max":289,"o":"m 233 712 l 90 0 l 19 0 l 161 712 l 233 712 m 289 808 l 232 808 l 102 970 l 210 970 l 289 808 z "},"î":{"ha":302,"x_min":20,"x_max":383,"o":"m 233 712 l 91 0 l 20 0 l 162 712 l 233 712 m 212 970 l 286 970 l 383 793 l 315 793 l 239 925 l 112 793 l 44 793 l 212 970 z "},"ï":{"ha":302,"x_min":26,"x_max":407,"o":"m 239 712 l 97 0 l 26 0 l 168 712 l 239 712 m 407 956 l 389 868 l 298 868 l 315 956 l 407 956 m 190 956 l 172 868 l 81 868 l 98 956 l 190 956 z "},"ñ":{"ha":790,"x_min":12,"x_max":728,"o":"m 12 0 l 155 712 l 212 712 l 183 499 q 529 712 351 712 q 686 505 728 712 l 585 0 l 514 0 l 615 505 q 513 648 644 648 q 168 422 337 648 l 83 0 l 12 0 m 317 939 q 412 970 364 970 q 483 952 447 970 q 557 935 519 935 q 662 966 608 935 l 650 905 q 555 873 603 873 q 484 891 520 873 q 410 909 448 909 q 305 878 359 909 l 317 939 z "},"ó":{"ha":787,"x_min":-22,"x_max":760,"o":"m 121 359 q 308 54 60 54 q 616 359 555 54 q 429 658 676 658 q 121 359 181 658 m 50 356 q 441 719 122 719 q 687 356 760 719 q 296 -6 614 -6 q 50 356 -22 -6 m 529 970 l 637 970 l 442 808 l 385 808 l 529 970 z "},"ò":{"ha":787,"x_min":-22,"x_max":760,"o":"m 121 359 q 308 54 60 54 q 616 359 555 54 q 429 658 676 658 q 121 359 181 658 m 50 356 q 441 719 122 719 q 687 356 760 719 q 296 -6 614 -6 q 50 356 -22 -6 m 532 808 l 475 808 l 345 970 l 453 970 l 532 808 z "},"ô":{"ha":787,"x_min":-22,"x_max":760,"o":"m 121 359 q 308 54 60 54 q 616 359 555 54 q 429 658 676 658 q 121 359 181 658 m 50 356 q 441 719 122 719 q 687 356 760 719 q 296 -6 614 -6 q 50 356 -22 -6 m 454 970 l 528 970 l 625 793 l 557 793 l 481 925 l 354 793 l 286 793 l 454 970 z "},"ö":{"ha":787,"x_min":-22,"x_max":760,"o":"m 121 359 q 308 54 60 54 q 616 359 555 54 q 429 658 676 658 q 121 359 181 658 m 50 356 q 441 719 122 719 q 687 356 760 719 q 296 -6 614 -6 q 50 356 -22 -6 m 643 956 l 625 868 l 534 868 l 551 956 l 643 956 m 426 956 l 408 868 l 317 868 l 334 956 l 426 956 z "},"õ":{"ha":787,"x_min":-22,"x_max":760,"o":"m 121 359 q 308 54 60 54 q 616 359 555 54 q 429 658 676 658 q 121 359 181 658 m 50 356 q 441 719 122 719 q 687 356 760 719 q 296 -6 614 -6 q 50 356 -22 -6 m 315 939 q 410 970 362 970 q 481 952 445 970 q 555 935 517 935 q 660 966 606 935 l 648 905 q 553 873 601 873 q 482 891 518 873 q 408 909 446 909 q 303 878 357 909 l 315 939 z "},"ú":{"ha":790,"x_min":12,"x_max":728,"o":"m 728 712 l 585 0 l 528 0 l 557 213 q 197 0 389 0 q 54 207 12 0 l 155 712 l 226 712 l 125 207 q 214 64 96 64 q 572 290 403 64 l 656 712 l 728 712 m 531 970 l 639 970 l 444 808 l 387 808 l 531 970 z "},"ù":{"ha":790,"x_min":12,"x_max":728,"o":"m 728 712 l 585 0 l 528 0 l 557 213 q 197 0 389 0 q 54 207 12 0 l 155 712 l 226 712 l 125 207 q 214 64 96 64 q 572 290 403 64 l 656 712 l 728 712 m 533 808 l 476 808 l 347 970 l 454 970 l 533 808 z "},"û":{"ha":790,"x_min":12,"x_max":728,"o":"m 728 712 l 585 0 l 528 0 l 557 213 q 197 0 389 0 q 54 207 12 0 l 155 712 l 226 712 l 125 207 q 214 64 96 64 q 572 290 403 64 l 656 712 l 728 712 m 456 970 l 530 970 l 627 793 l 559 793 l 483 925 l 356 793 l 288 793 l 456 970 z "},"ü":{"ha":790,"x_min":12,"x_max":728,"o":"m 728 712 l 585 0 l 528 0 l 557 213 q 197 0 389 0 q 54 207 12 0 l 155 712 l 226 712 l 125 207 q 214 64 96 64 q 572 290 403 64 l 656 712 l 728 712 m 644 956 l 627 868 l 535 868 l 553 956 l 644 956 m 427 956 l 410 868 l 318 868 l 336 956 l 427 956 z "},"†":{"ha":722,"x_min":75,"x_max":728,"o":"m 494 970 l 443 712 l 728 712 l 715 651 l 431 651 l 249 -258 l 178 -258 l 359 651 l 75 651 l 87 712 l 372 712 l 423 970 l 494 970 z "},"°":{"ha":524,"x_min":102,"x_max":547,"o":"m 198 795 q 300 668 173 668 q 450 795 425 668 q 351 920 475 920 q 198 795 223 920 m 137 793 q 361 970 172 970 q 511 793 547 970 q 290 618 476 618 q 137 793 102 618 z "},"¢":{"ha":658,"x_min":0,"x_max":658,"o":"m 418 839 l 444 970 l 522 970 l 496 842 q 658 821 585 839 l 646 760 q 467 781 555 781 q 148 492 205 781 q 315 191 87 191 q 551 286 437 191 l 537 218 q 355 134 455 149 l 328 0 l 250 0 l 277 130 q 70 492 0 142 q 418 839 134 812 z "},"£":{"ha":839,"x_min":-26,"x_max":850,"o":"m -14 42 q 161 280 123 93 q 148 477 176 359 q 139 696 119 595 q 560 977 195 977 q 850 909 757 977 l 833 827 q 550 916 744 916 q 219 698 262 916 q 221 522 199 600 l 524 522 l 511 461 l 231 461 q 235 282 248 350 q 151 80 216 189 q 209 83 179 83 q 405 54 302 83 q 484 42 444 42 q 690 109 583 42 l 675 34 q 471 -23 582 -23 q 338 -4 407 -23 q 176 18 255 18 q -26 -20 72 18 l -14 42 z "},"§":{"ha":726,"x_min":18,"x_max":709,"o":"m 18 27 l 31 95 q 270 54 142 54 q 522 190 494 54 q 358 305 545 305 l 283 305 q 76 488 39 305 q 214 628 96 589 q 134 780 111 662 q 484 977 174 977 q 709 943 597 977 l 696 875 q 471 916 585 916 q 205 780 233 916 q 355 665 182 665 l 430 665 q 652 484 688 665 q 511 338 630 375 q 593 190 614 296 q 258 -7 553 -7 q 18 27 130 -7 m 146 486 q 302 365 123 365 l 377 365 q 579 477 557 365 q 425 604 604 604 l 350 604 q 146 486 170 604 z "},"•":{"ha":414,"x_min":50,"x_max":368,"o":"m 77 492 q 235 624 103 624 q 341 492 368 624 q 182 359 315 359 q 77 492 50 359 z "},"¶":{"ha":660,"x_min":-16,"x_max":751,"o":"m 153 -294 l 284 365 q 45 669 -16 365 q 405 970 104 970 l 751 970 l 739 909 l 637 909 l 397 -294 l 329 -294 l 569 909 l 460 909 l 220 -294 l 153 -294 z "},"ß":{"ha":791,"x_min":-114,"x_max":785,"o":"m 93 47 q -72 -250 49 -173 l -114 -205 q 23 54 -18 -148 l 142 650 q 513 968 205 968 q 734 712 785 968 l 726 675 q 471 500 492 605 q 578 369 455 418 q 675 191 701 321 q 383 0 637 0 l 246 0 l 258 61 l 397 61 q 597 191 571 61 q 496 332 616 287 q 399 498 376 377 q 659 712 428 639 q 496 907 697 907 q 213 648 264 907 l 93 47 z "},"®":{"ha":802,"x_min":103,"x_max":794,"o":"m 288 513 l 360 876 l 515 876 q 602 789 619 876 q 479 684 587 718 l 570 513 l 508 513 l 425 676 l 431 707 q 551 787 538 724 q 503 838 561 838 l 399 838 l 334 513 l 288 513 m 201 695 q 394 450 152 450 q 687 695 638 450 q 493 945 737 945 q 201 695 251 945 m 151 694 q 500 983 209 983 q 736 694 794 983 q 387 412 680 412 q 151 694 103 412 z "},"©":{"ha":1211,"x_min":4,"x_max":1208,"o":"m 174 488 q 510 54 87 54 q 1039 488 952 54 q 696 916 1124 916 q 174 488 260 916 m 104 490 q 708 977 201 977 q 1111 490 1208 977 q 511 -7 1011 -7 q 104 490 4 -7 m 751 228 q 548 193 660 193 q 326 494 266 193 q 665 776 382 776 q 854 741 777 776 l 841 675 q 662 714 764 714 q 397 494 441 714 q 570 255 349 255 q 765 294 672 255 l 751 228 z "},"™":{"ha":1103,"x_min":197,"x_max":1092,"o":"m 553 970 l 543 922 l 399 922 l 318 513 l 259 513 l 340 922 l 197 922 l 206 970 l 553 970 m 522 513 l 613 970 l 688 970 l 780 589 l 1020 970 l 1092 970 l 1001 513 l 948 513 l 1021 882 l 786 513 l 739 513 l 648 882 l 574 513 l 522 513 z "},"´":{"ha":355,"x_min":133,"x_max":385,"o":"m 277 970 l 385 970 l 190 808 l 133 808 l 277 970 z "},"¨":{"ha":431,"x_min":138,"x_max":465,"o":"m 465 956 l 447 868 l 355 868 l 373 956 l 465 956 m 248 956 l 230 868 l 138 868 l 156 956 l 248 956 z "},"Æ":{"ha":1285,"x_min":-73,"x_max":1278,"o":"m -73 0 l 533 970 l 1278 970 l 1265 909 l 643 909 l 728 522 l 1164 522 l 1152 461 l 743 461 l 836 61 l 1109 61 l 1097 0 l 764 0 l 570 918 l 258 387 l 598 387 l 605 326 l 207 326 l 15 0 l -73 0 z "},"Ø":{"ha":1116,"x_min":22,"x_max":1095,"o":"m 245 111 q 476 54 328 54 q 964 488 878 54 q 921 818 1009 711 l 245 111 m 195 157 l 871 863 q 648 916 789 916 q 154 488 239 916 q 195 157 109 265 m 191 56 l 138 0 l 45 0 l 138 98 q 75 484 22 220 q 661 977 174 977 q 924 918 827 977 l 973 970 l 1067 970 l 976 876 q 1042 484 1095 753 q 464 -7 943 -7 q 191 56 290 -7 z "},"±":{"ha":658,"x_min":-22,"x_max":585,"o":"m 293 488 l 338 712 l 412 712 l 368 488 l 585 488 l 572 427 l 355 427 l 311 203 l 236 203 l 281 427 l 64 427 l 76 488 l 293 488 m 499 61 l 487 0 l -22 0 l -9 61 l 499 61 z "},"¥":{"ha":861,"x_min":77,"x_max":918,"o":"m 138 970 l 223 970 l 433 522 l 827 970 l 918 970 l 489 495 l 742 495 l 730 434 l 448 434 l 425 318 l 707 318 l 694 257 l 412 257 l 361 0 l 290 0 l 341 257 l 77 257 l 90 318 l 353 318 l 376 434 l 113 434 l 125 495 l 360 495 l 138 970 z "},"µ":{"ha":790,"x_min":-39,"x_max":728,"o":"m 96 63 l 32 -258 l -39 -258 l 155 712 l 226 712 l 125 207 q 214 64 96 64 q 572 290 403 64 l 656 712 l 728 712 l 585 0 l 528 0 l 557 213 q 218 0 389 0 q 96 63 127 0 z "},"ª":{"ha":427,"x_min":94,"x_max":453,"o":"m 388 910 q 323 918 371 918 q 184 788 210 918 q 231 669 160 669 q 357 755 303 669 l 388 910 m 385 614 l 336 614 l 346 699 q 209 614 289 614 q 129 787 94 614 q 337 970 165 970 q 453 956 409 970 l 385 614 z "},"º":{"ha":461,"x_min":96,"x_max":491,"o":"m 186 793 q 267 665 161 665 q 400 793 374 665 q 318 920 425 920 q 186 793 212 920 m 130 792 q 328 970 165 970 q 455 792 491 970 q 257 614 420 614 q 130 792 96 614 z "},"æ":{"ha":1204,"x_min":-28,"x_max":1175,"o":"m 316 346 q 83 203 112 346 q 224 61 55 61 q 486 130 355 61 l 526 332 q 316 346 416 346 m 604 397 l 860 397 q 1067 528 1041 397 q 904 652 1092 652 q 604 397 667 652 m 552 105 q 212 0 378 0 q 12 201 -28 0 q 328 407 53 407 q 538 393 428 407 l 557 488 q 385 651 590 651 q 153 617 275 651 l 165 678 q 397 712 287 712 q 623 580 597 712 q 916 712 711 712 q 1138 526 1175 712 q 848 334 1099 334 l 591 334 q 791 61 536 61 q 1046 156 933 61 l 1033 88 q 779 0 921 0 q 552 105 604 0 z "},"ø":{"ha":787,"x_min":-18,"x_max":760,"o":"m 71 92 q 50 356 16 182 q 441 719 122 719 q 625 668 560 719 l 667 712 l 760 712 l 669 617 q 687 356 721 527 q 296 -6 614 -6 q 116 43 180 -6 l 75 0 l -18 0 l 71 92 m 612 558 l 167 96 q 308 54 216 54 q 616 359 555 54 q 612 558 642 485 m 127 151 l 572 614 q 429 658 523 658 q 121 359 181 658 q 127 151 95 226 z "},"¿":{"ha":770,"x_min":-73,"x_max":612,"o":"m 527 641 l 541 712 l 612 712 l 598 641 l 527 641 m 554 -224 q 276 -258 405 -258 q -20 7 -73 -258 q 370 271 33 271 l 453 271 l 491 461 l 562 461 l 512 210 l 359 210 q 51 7 92 210 q 288 -197 10 -197 q 566 -163 417 -197 l 554 -224 z "},"¡":{"ha":288,"x_min":-39,"x_max":226,"o":"m -39 -258 l 104 461 l 176 461 l 32 -258 l -39 -258 m 140 641 l 155 712 l 226 712 l 212 641 l 140 641 z "},"¬":{"ha":749,"x_min":109,"x_max":721,"o":"m 121 712 l 721 712 l 675 481 l 614 481 l 648 651 l 109 651 l 121 712 z "},"ƒ":{"ha":669,"x_min":-107,"x_max":726,"o":"m 714 909 q 684 912 699 912 q 493 726 566 912 l 450 624 l 592 624 l 566 563 l 424 563 l 197 -14 q -73 -260 98 -260 q -107 -258 -90 -260 l -95 -197 q -64 -200 -79 -200 q 126 -14 53 -200 l 353 563 l 231 563 l 256 624 l 378 624 l 422 726 q 692 972 521 972 q 726 970 709 972 l 714 909 z "},"«":{"ha":589,"x_min":50,"x_max":574,"o":"m 266 356 l 492 610 l 574 610 l 349 356 l 473 102 l 390 102 l 266 356 m 50 356 l 275 610 l 358 610 l 132 356 l 256 102 l 174 102 l 50 356 z "},"»":{"ha":589,"x_min":-35,"x_max":490,"o":"m 47 102 l -35 102 l 191 356 l 66 610 l 149 610 l 273 356 l 47 102 m 264 102 l 181 102 l 407 356 l 283 610 l 366 610 l 490 356 l 264 102 z "},"…":{"ha":715,"x_min":-22,"x_max":562,"o":"m 324 85 l 307 0 l 216 0 l 233 85 l 324 85 m 87 85 l 70 0 l -22 0 l -5 85 l 87 85 m 562 85 l 545 0 l 453 0 l 470 85 l 562 85 z "}," ":{"ha":351,"x_min":0,"x_max":0,"o":""},"À":{"ha":1012,"x_min":-73,"x_max":892,"o":"m 8 0 l -73 0 l 560 970 l 645 970 l 892 0 l 812 0 l 733 326 l 298 326 l 332 387 l 719 387 l 592 914 l 8 0 m 644 1065 l 587 1065 l 458 1227 l 566 1227 l 644 1065 z "},"Ã":{"ha":1012,"x_min":-73,"x_max":892,"o":"m 8 0 l -73 0 l 560 970 l 645 970 l 892 0 l 812 0 l 733 326 l 298 326 l 332 387 l 719 387 l 592 914 l 8 0 m 469 1196 q 563 1227 515 1227 q 634 1210 598 1227 q 708 1192 670 1192 q 813 1223 759 1192 l 801 1162 q 707 1131 754 1131 q 635 1149 671 1131 q 562 1166 600 1166 q 456 1135 511 1166 l 469 1196 z "},"Õ":{"ha":1116,"x_min":-23,"x_max":1140,"o":"m 154 488 q 476 54 67 54 q 964 488 878 54 q 648 916 1050 916 q 154 488 239 916 m 75 484 q 661 977 174 977 q 1042 484 1140 977 q 464 -7 943 -7 q 75 484 -23 -7 m 534 1196 q 629 1227 581 1227 q 700 1210 664 1227 q 774 1192 736 1192 q 879 1223 825 1192 l 867 1162 q 772 1131 820 1131 q 701 1149 737 1131 q 627 1166 665 1166 q 522 1135 576 1166 l 534 1196 z "},"Œ":{"ha":1516,"x_min":-22,"x_max":1512,"o":"m 154 488 q 477 61 68 61 q 964 488 879 61 q 647 909 1048 909 q 154 488 238 909 m 75 484 q 659 970 172 970 l 1512 970 l 1499 909 l 920 909 q 1049 522 1088 816 l 1398 522 l 1386 461 l 1037 461 q 742 61 956 158 l 1340 61 l 1328 0 l 465 0 q 75 484 -22 0 z "},"œ":{"ha":1295,"x_min":-22,"x_max":1267,"o":"m 308 54 q 616 359 555 54 q 429 658 676 658 q 121 359 181 658 q 308 54 60 54 m 695 397 l 951 397 q 1159 528 1133 397 q 996 652 1183 652 q 695 397 758 652 m 610 172 q 296 -6 504 -6 q 50 356 -22 -6 q 441 719 122 719 q 689 544 653 719 q 1008 712 794 712 q 1230 526 1267 712 q 940 334 1191 334 l 682 334 q 883 61 628 61 q 1138 156 1025 61 l 1124 88 q 871 0 1013 0 q 610 172 648 0 z "},"–":{"ha":827,"x_min":43,"x_max":734,"o":"m 734 387 l 722 326 l 43 326 l 56 387 l 734 387 z "},"—":{"ha":1166,"x_min":43,"x_max":1073,"o":"m 1073 387 l 1061 326 l 43 326 l 56 387 l 1073 387 z "},"“":{"ha":441,"x_min":79,"x_max":522,"o":"m 522 970 l 361 675 l 283 675 l 444 970 l 522 970 m 318 970 l 157 675 l 79 675 l 240 970 l 318 970 z "},"”":{"ha":441,"x_min":79,"x_max":522,"o":"m 522 970 l 361 675 l 283 675 l 444 970 l 522 970 m 318 970 l 157 675 l 79 675 l 240 970 l 318 970 z "},"‘":{"ha":237,"x_min":79,"x_max":318,"o":"m 318 970 l 157 675 l 79 675 l 240 970 l 318 970 z "},"’":{"ha":254,"x_min":79,"x_max":318,"o":"m 318 970 l 157 675 l 79 675 l 240 970 l 318 970 z "},"÷":{"ha":682,"x_min":43,"x_max":588,"o":"m 588 387 l 576 326 l 43 326 l 56 387 l 588 387 m 332 190 l 314 102 l 216 102 l 233 190 l 332 190 m 416 610 l 398 522 l 300 522 l 317 610 l 416 610 z "},"ÿ":{"ha":790,"x_min":-7,"x_max":728,"o":"m 557 213 q 197 0 389 0 q 54 207 12 0 l 155 712 l 226 712 l 125 207 q 214 64 96 64 q 572 290 403 64 l 656 712 l 728 712 l 585 0 q 220 -258 534 -258 q -7 -224 88 -258 l 5 -163 q 233 -197 102 -197 q 514 0 475 -197 l 557 213 m 644 956 l 627 868 l 535 868 l 553 956 l 644 956 m 427 956 l 410 868 l 318 868 l 336 956 l 427 956 z "},"Ÿ":{"ha":848,"x_min":121,"x_max":922,"o":"m 121 970 l 206 970 l 408 407 l 844 970 l 922 970 l 432 339 l 364 0 l 293 0 l 361 339 l 121 970 m 707 1214 l 690 1126 l 598 1126 l 616 1214 l 707 1214 m 490 1214 l 473 1126 l 381 1126 l 399 1214 l 490 1214 z "},"¤":{"ha":759,"x_min":-1,"x_max":711,"o":"m 178 533 l 102 614 l 158 663 l 224 568 q 412 618 307 618 q 570 566 516 618 l 673 659 l 711 614 l 597 529 q 620 363 639 456 q 532 185 597 248 l 610 111 l 553 62 l 491 152 q 302 98 400 98 q 134 152 204 98 l 38 62 l -1 104 l 108 185 q 90 356 70 255 q 178 533 111 463 m 146 359 q 312 151 105 151 q 560 359 519 151 q 395 565 602 565 q 146 359 188 565 z "},"‹":{"ha":373,"x_min":50,"x_max":358,"o":"m 50 356 l 275 610 l 358 610 l 132 356 l 256 102 l 174 102 l 50 356 z "},"›":{"ha":373,"x_min":-35,"x_max":273,"o":"m 47 102 l -35 102 l 191 356 l 66 610 l 149 610 l 273 356 l 47 102 z "},"‡":{"ha":722,"x_min":-56,"x_max":728,"o":"m 494 970 l 443 712 l 728 712 l 715 651 l 431 651 l 313 61 l 597 61 l 585 0 l 300 0 l 249 -258 l 178 -258 l 229 0 l -56 0 l -43 61 l 241 61 l 359 651 l 75 651 l 87 712 l 372 712 l 423 970 l 494 970 z "},"·":{"ha":292,"x_min":43,"x_max":198,"o":"m 56 356 q 134 420 69 420 q 185 356 198 420 q 108 292 172 292 q 56 356 43 292 z "},"‚":{"ha":237,"x_min":-113,"x_max":125,"o":"m 125 125 l -35 -170 l -113 -170 l 47 125 l 125 125 z "},"„":{"ha":441,"x_min":-113,"x_max":329,"o":"m 329 125 l 168 -170 l 90 -170 l 251 125 l 329 125 m 125 125 l -35 -170 l -113 -170 l 47 125 l 125 125 z "},"‰":{"ha":1388,"x_min":-22,"x_max":1286,"o":"m 945 170 q 1042 50 921 50 q 1183 170 1160 50 q 1089 288 1207 288 q 945 170 968 288 m 877 169 q 1101 345 912 345 q 1251 169 1286 345 q 1030 -7 1216 -7 q 877 169 842 -7 m 63 0 l -22 0 l 862 970 l 947 970 l 63 0 m 206 802 q 303 682 182 682 q 445 802 421 682 q 351 920 469 920 q 206 802 230 920 m 138 800 q 362 977 174 977 q 513 800 548 977 q 292 625 477 625 q 138 800 103 625 m 480 170 q 577 50 456 50 q 719 170 695 50 q 625 288 743 288 q 480 170 504 288 m 412 169 q 636 345 448 345 q 787 169 822 345 q 566 -7 751 -7 q 412 169 377 -7 z "},"Â":{"ha":1012,"x_min":-73,"x_max":892,"o":"m 8 0 l -73 0 l 560 970 l 645 970 l 892 0 l 812 0 l 733 326 l 298 326 l 332 387 l 719 387 l 592 914 l 8 0 m 607 1227 l 682 1227 l 779 1051 l 711 1051 l 634 1183 l 507 1051 l 439 1051 l 607 1227 z "},"Ê":{"ha":846,"x_min":12,"x_max":843,"o":"m 843 970 l 831 909 l 265 909 l 188 522 l 730 522 l 718 461 l 176 461 l 96 61 l 671 61 l 659 0 l 12 0 l 206 970 l 843 970 m 533 1227 l 608 1227 l 705 1051 l 637 1051 l 560 1183 l 433 1051 l 366 1051 l 533 1227 z "},"Á":{"ha":1012,"x_min":-73,"x_max":892,"o":"m 8 0 l -73 0 l 560 970 l 645 970 l 892 0 l 812 0 l 733 326 l 298 326 l 332 387 l 719 387 l 592 914 l 8 0 m 682 1227 l 790 1227 l 595 1065 l 538 1065 l 682 1227 z "},"Ë":{"ha":846,"x_min":12,"x_max":843,"o":"m 843 970 l 831 909 l 265 909 l 188 522 l 730 522 l 718 461 l 176 461 l 96 61 l 671 61 l 659 0 l 12 0 l 206 970 l 843 970 m 722 1214 l 704 1126 l 612 1126 l 630 1214 l 722 1214 m 505 1214 l 487 1126 l 395 1126 l 413 1214 l 505 1214 z "},"È":{"ha":846,"x_min":12,"x_max":843,"o":"m 843 970 l 831 909 l 265 909 l 188 522 l 730 522 l 718 461 l 176 461 l 96 61 l 671 61 l 659 0 l 12 0 l 206 970 l 843 970 m 610 1065 l 553 1065 l 424 1227 l 532 1227 l 610 1065 z "},"Í":{"ha":356,"x_min":46,"x_max":490,"o":"m 311 970 l 117 0 l 46 0 l 240 970 l 311 970 m 382 1227 l 490 1227 l 295 1065 l 238 1065 l 382 1227 z "},"Î":{"ha":356,"x_min":47,"x_max":465,"o":"m 312 970 l 118 0 l 47 0 l 241 970 l 312 970 m 293 1227 l 368 1227 l 465 1051 l 397 1051 l 320 1183 l 193 1051 l 125 1051 l 293 1227 z "},"Ï":{"ha":356,"x_min":53,"x_max":481,"o":"m 318 970 l 124 0 l 53 0 l 247 970 l 318 970 m 481 1214 l 464 1126 l 372 1126 l 390 1214 l 481 1214 m 264 1214 l 247 1126 l 155 1126 l 173 1214 l 264 1214 z "},"Ì":{"ha":356,"x_min":46,"x_max":330,"o":"m 311 970 l 117 0 l 46 0 l 240 970 l 311 970 m 330 1065 l 273 1065 l 143 1227 l 251 1227 l 330 1065 z "},"Ó":{"ha":1116,"x_min":-23,"x_max":1140,"o":"m 154 488 q 476 54 67 54 q 964 488 878 54 q 648 916 1050 916 q 154 488 239 916 m 75 484 q 661 977 174 977 q 1042 484 1140 977 q 464 -7 943 -7 q 75 484 -23 -7 m 748 1227 l 856 1227 l 661 1065 l 604 1065 l 748 1227 z "},"Ô":{"ha":1116,"x_min":-23,"x_max":1140,"o":"m 154 488 q 476 54 67 54 q 964 488 878 54 q 648 916 1050 916 q 154 488 239 916 m 75 484 q 661 977 174 977 q 1042 484 1140 977 q 464 -7 943 -7 q 75 484 -23 -7 m 673 1227 l 747 1227 l 844 1051 l 777 1051 l 700 1183 l 573 1051 l 505 1051 l 673 1227 z "},"Ò":{"ha":1116,"x_min":-23,"x_max":1140,"o":"m 154 488 q 476 54 67 54 q 964 488 878 54 q 648 916 1050 916 q 154 488 239 916 m 75 484 q 661 977 174 977 q 1042 484 1140 977 q 464 -7 943 -7 q 75 484 -23 -7 m 750 1065 l 693 1065 l 564 1227 l 671 1227 l 750 1065 z "},"Ú":{"ha":997,"x_min":11,"x_max":986,"o":"m 87 374 l 206 970 l 277 970 l 158 374 q 413 54 94 54 q 795 374 732 54 l 915 970 l 986 970 l 867 374 q 401 -7 791 -7 q 87 374 11 -7 m 668 1227 l 776 1227 l 581 1065 l 524 1065 l 668 1227 z "},"Û":{"ha":997,"x_min":11,"x_max":986,"o":"m 87 374 l 206 970 l 277 970 l 158 374 q 413 54 94 54 q 795 374 732 54 l 915 970 l 986 970 l 867 374 q 401 -7 791 -7 q 87 374 11 -7 m 600 1227 l 674 1227 l 771 1051 l 703 1051 l 627 1183 l 500 1051 l 432 1051 l 600 1227 z "},"Ù":{"ha":997,"x_min":11,"x_max":986,"o":"m 87 374 l 206 970 l 277 970 l 158 374 q 413 54 94 54 q 795 374 732 54 l 915 970 l 986 970 l 867 374 q 401 -7 791 -7 q 87 374 11 -7 m 677 1065 l 621 1065 l 491 1227 l 599 1227 l 677 1065 z "},"ˆ":{"ha":475,"x_min":130,"x_max":469,"o":"m 298 970 l 372 970 l 469 793 l 401 793 l 325 925 l 198 793 l 130 793 l 298 970 z "},"˜":{"ha":475,"x_min":147,"x_max":504,"o":"m 159 939 q 254 970 206 970 q 325 952 289 970 q 399 935 361 935 q 504 966 450 935 l 492 905 q 397 873 445 873 q 326 891 362 873 q 252 909 290 909 q 147 878 201 909 l 159 939 z "},"¯":{"ha":475,"x_min":153,"x_max":505,"o":"m 505 970 l 492 909 l 153 909 l 165 970 l 505 970 z "},"¸":{"ha":446,"x_min":-79,"x_max":271,"o":"m -66 -193 q 72 -233 -1 -233 q 185 -169 172 -233 q 114 -105 197 -105 l 10 -105 l 130 51 l 195 51 l 119 -52 q 248 -169 271 -52 q 61 -286 224 -286 q -79 -252 -12 -286 l -66 -193 z "},"̦":{"ha":207,"x_min":-131,"x_max":80,"o":"m 80 -68 l -60 -258 l -131 -258 l 9 -68 l 80 -68 z "},"Š":{"ha":888,"x_min":12,"x_max":878,"o":"m 12 34 l 27 109 q 353 54 169 54 q 703 285 657 54 q 539 454 737 454 l 340 454 q 118 699 69 454 q 570 977 174 977 q 878 936 733 977 l 864 868 q 558 916 721 916 q 189 699 233 916 q 353 522 154 522 l 553 522 q 774 285 822 522 q 340 -7 716 -7 q 12 34 157 -7 m 413 1227 l 481 1227 l 555 1096 l 684 1227 l 752 1227 l 585 1051 l 510 1051 l 413 1227 z "},"š":{"ha":699,"x_min":5,"x_max":643,"o":"m 5 34 l 19 102 q 244 61 130 61 q 497 203 469 61 q 354 319 520 319 l 266 319 q 80 509 42 319 q 417 712 121 712 q 643 678 531 712 l 629 610 q 405 651 519 651 q 151 509 180 651 q 279 387 127 387 l 368 387 q 568 203 605 387 q 232 0 528 0 q 5 34 117 0 m 277 970 l 345 970 l 419 838 l 549 970 l 616 970 l 449 793 l 374 793 l 277 970 z "},"¦":{"ha":288,"x_min":-39,"x_max":277,"o":"m 131 237 l 32 -258 l -39 -258 l 60 237 l 131 237 m 277 970 l 178 475 l 107 475 l 206 970 l 277 970 z "},"Ð":{"ha":997,"x_min":-31,"x_max":1027,"o":"m 188 522 l 490 522 l 477 461 l 176 461 l 96 61 l 363 61 q 857 511 767 61 q 533 909 937 909 l 265 909 l 188 522 m 104 461 l -31 461 l -19 522 l 117 522 l 206 970 l 552 970 q 935 511 1027 970 q 351 0 833 0 l 12 0 l 104 461 z "},"ð":{"ha":773,"x_min":-23,"x_max":755,"o":"m 617 397 q 640 570 633 476 q 424 658 576 658 q 120 366 178 658 q 304 54 58 54 q 617 397 549 54 m 638 869 q 689 400 755 730 q 291 -7 608 -7 q 52 366 -23 -7 q 429 712 121 712 q 643 644 569 712 q 564 836 629 770 l 380 753 l 392 814 l 519 871 q 361 909 456 909 l 214 909 l 227 970 l 374 970 q 599 907 517 970 l 740 970 l 728 909 l 638 869 z "},"Ý":{"ha":848,"x_min":121,"x_max":922,"o":"m 121 970 l 206 970 l 408 407 l 844 970 l 922 970 l 432 339 l 364 0 l 293 0 l 361 339 l 121 970 m 600 1227 l 708 1227 l 513 1065 l 456 1065 l 600 1227 z "},"ý":{"ha":790,"x_min":-7,"x_max":728,"o":"m 557 213 q 197 0 389 0 q 54 207 12 0 l 155 712 l 226 712 l 125 207 q 214 64 96 64 q 572 290 403 64 l 656 712 l 728 712 l 585 0 q 220 -258 534 -258 q -7 -224 88 -258 l 5 -163 q 233 -197 102 -197 q 514 0 475 -197 l 557 213 m 531 970 l 639 970 l 444 808 l 387 808 l 531 970 z "},"Þ":{"ha":857,"x_min":12,"x_max":854,"o":"m 12 0 l 206 970 l 277 970 l 235 761 l 578 761 q 808 528 854 761 q 357 203 755 266 l 350 262 q 728 523 687 319 q 554 698 763 698 l 223 698 l 83 0 l 12 0 z "},"þ":{"ha":765,"x_min":-39,"x_max":736,"o":"m 100 83 q 300 64 212 64 q 602 382 538 64 q 486 644 654 644 q 178 472 341 644 l 100 83 m 206 970 l 277 970 l 192 543 q 507 712 361 712 q 669 377 736 712 q 294 0 594 0 q 87 16 182 0 l 32 -258 l -39 -258 l 206 970 z "},"­":{"ha":658,"x_min":43,"x_max":564,"o":"m 564 387 l 552 326 l 43 326 l 56 387 l 564 387 z "},"×":{"ha":557,"x_min":18,"x_max":484,"o":"m 208 356 l 81 514 l 138 562 l 265 404 l 449 557 l 484 514 l 300 361 l 426 203 l 368 155 l 242 313 l 52 155 l 18 198 l 208 356 z "},"¹":{"ha":236,"x_min":92,"x_max":258,"o":"m 92 481 l 174 889 l 122 889 l 130 926 l 258 967 l 161 481 l 92 481 z "},"²":{"ha":414,"x_min":41,"x_max":471,"o":"m 41 481 l 54 546 q 371 821 351 718 q 279 905 388 905 q 132 868 205 905 l 145 936 q 292 970 218 970 q 441 821 471 970 q 157 546 417 702 l 386 546 l 373 481 l 41 481 z "},"³":{"ha":406,"x_min":44,"x_max":463,"o":"m 134 949 q 274 970 206 970 q 435 831 463 970 q 350 728 420 758 q 393 624 408 699 q 176 479 364 479 q 44 499 108 479 l 58 567 q 189 543 121 543 q 324 624 308 543 q 246 696 338 696 l 135 696 l 148 760 l 258 760 q 366 831 351 760 q 261 906 380 906 q 121 882 193 906 l 134 949 z "},"½":{"ha":991,"x_min":-22,"x_max":918,"o":"m 63 0 l -22 0 l 813 970 l 898 970 l 63 0 m 488 0 l 501 64 q 819 339 799 236 q 728 424 836 424 q 579 387 653 424 l 593 454 q 741 488 666 488 q 888 339 918 488 q 604 64 865 220 l 833 64 l 821 0 l 488 0 m 162 481 l 243 889 l 192 889 l 199 926 l 328 967 l 231 481 l 162 481 z "},"¼":{"ha":996,"x_min":-22,"x_max":923,"o":"m 63 0 l -22 0 l 813 970 l 898 970 l 63 0 m 595 468 q 735 488 667 488 q 895 350 923 488 q 811 246 881 277 q 854 142 869 217 q 637 -3 825 -3 q 505 18 569 -3 l 519 85 q 650 61 582 61 q 784 142 768 61 q 706 214 798 214 l 595 214 l 608 278 l 718 278 q 825 350 811 278 q 722 425 840 425 q 582 400 654 425 l 595 468 m 162 481 l 243 889 l 192 889 l 199 926 l 328 967 l 231 481 l 162 481 z "},"¾":{"ha":1024,"x_min":40,"x_max":960,"o":"m 125 0 l 40 0 l 875 970 l 960 970 l 125 0 m 769 0 l 700 0 l 720 102 l 475 102 l 488 165 l 713 484 l 782 484 l 560 165 l 733 165 l 774 372 l 844 372 l 802 165 l 847 140 l 840 102 l 789 102 l 769 0 m 168 949 q 308 970 240 970 q 468 831 496 970 q 384 728 454 758 q 427 624 441 699 q 210 479 397 479 q 78 499 142 479 l 92 567 q 222 543 155 543 q 357 624 340 543 q 279 696 371 696 l 168 696 l 180 760 l 291 760 q 398 831 384 760 q 295 906 413 906 q 155 882 227 906 l 168 949 z "},"Ł":{"ha":775,"x_min":-24,"x_max":657,"o":"m 92 401 l -24 327 l -9 401 l 107 476 l 206 970 l 277 970 l 189 529 l 503 730 l 488 655 l 174 454 l 96 61 l 657 61 l 645 0 l 12 0 l 92 401 z "},"ł":{"ha":315,"x_min":-11,"x_max":319,"o":"m 121 477 l 220 970 l 291 970 l 203 530 l 319 605 l 304 530 l 188 455 l 97 0 l 26 0 l 106 402 l -11 327 l 4 401 l 121 477 z "},"Ž":{"ha":861,"x_min":-5,"x_max":867,"o":"m 867 970 l 855 909 l 98 61 l 672 61 l 660 0 l -5 0 l 6 54 l 783 909 l 191 909 l 203 970 l 867 970 m 437 1242 l 505 1242 l 578 1110 l 708 1242 l 776 1242 l 608 1065 l 534 1065 l 437 1242 z "},"ž":{"ha":671,"x_min":-22,"x_max":643,"o":"m 134 712 l 643 712 l 631 651 l 74 61 l 499 61 l 487 0 l -22 0 l -9 61 l 546 651 l 122 651 l 134 712 m 264 970 l 332 970 l 406 838 l 535 970 l 603 970 l 435 793 l 361 793 l 264 970 z "},"≠":{"ha":658,"x_min":-22,"x_max":629,"o":"m 224 224 l 39 0 l -22 0 l 163 224 l 23 224 l 35 285 l 214 285 l 332 427 l 64 427 l 76 488 l 383 488 l 568 712 l 629 712 l 444 488 l 585 488 l 572 427 l 393 427 l 275 285 l 544 285 l 532 224 l 224 224 z "},"∞":{"ha":1044,"x_min":9,"x_max":985,"o":"m 50 356 q 286 556 90 556 q 507 407 429 556 q 788 556 646 556 q 945 356 985 556 q 708 156 905 156 q 487 305 566 156 q 206 156 349 156 q 50 356 9 156 m 880 356 q 777 502 909 502 q 531 356 675 502 q 719 210 617 210 q 880 356 851 210 m 114 356 q 217 210 85 210 q 463 356 319 210 q 275 502 377 502 q 114 356 143 502 z "},"≤":{"ha":658,"x_min":-22,"x_max":632,"o":"m 499 61 l 487 0 l -22 0 l -9 61 l 499 61 m 64 427 l 76 488 l 632 726 l 618 658 l 136 460 l 538 258 l 525 190 l 64 427 z "},"≥":{"ha":658,"x_min":-22,"x_max":585,"o":"m 499 61 l 487 0 l -22 0 l -9 61 l 499 61 m 16 190 l 30 258 l 513 460 l 110 658 l 123 726 l 585 488 l 572 427 l 16 190 z "},"∂":{"ha":839,"x_min":9,"x_max":885,"o":"m 605 916 q 325 825 465 916 l 339 895 q 625 977 493 977 q 827 687 885 977 q 774 513 812 610 q 221 -7 560 -7 q 48 191 9 -7 q 79 292 58 236 q 508 561 192 561 l 721 561 q 756 683 745 629 q 605 916 803 916 m 692 495 l 480 495 q 151 292 235 495 q 125 209 132 245 q 250 54 94 54 q 692 495 508 54 z "},"∑":{"ha":916,"x_min":-80,"x_max":945,"o":"m 165 970 l 945 970 l 933 909 l 228 909 l 515 373 l 14 -197 l 712 -197 l 700 -258 l -80 -258 l -68 -197 l 437 380 l 153 909 l 165 970 z "},"∏":{"ha":1065,"x_min":-46,"x_max":1061,"o":"m 1061 970 l 815 -258 l 751 -258 l 984 909 l 258 909 l 25 -258 l -46 -258 l 199 970 l 1061 970 z "},"π":{"ha":939,"x_min":43,"x_max":918,"o":"m 55 671 q 260 712 158 712 l 918 712 l 905 651 l 739 651 l 652 217 q 745 60 621 60 q 760 61 752 60 l 748 0 q 705 -3 725 -3 q 581 217 537 -3 l 668 651 l 319 651 l 189 -1 l 117 -1 l 248 651 q 43 610 146 651 l 55 671 z "},"∫":{"ha":359,"x_min":-102,"x_max":481,"o":"m 469 1065 q 267 808 318 1065 q 259 766 262 788 l 191 298 q 183 251 188 274 q -102 -61 121 -61 l -90 0 q 113 256 61 0 q 120 298 117 277 l 188 766 q 196 814 191 791 q 481 1126 258 1126 l 469 1065 z "},"Ω":{"ha":1092,"x_min":-5,"x_max":1111,"o":"m -5 0 l 7 61 l 248 61 q 96 556 39 271 q 646 983 182 983 q 1025 556 1111 983 q 675 61 968 271 l 916 61 l 904 0 l 565 0 l 577 61 q 954 556 900 285 q 634 922 1027 922 q 168 556 241 922 q 347 61 113 285 l 334 0 l -5 0 z "},"√":{"ha":929,"x_min":92,"x_max":1078,"o":"m 104 712 l 317 712 l 387 86 l 996 1257 l 1078 1257 l 405 -5 l 320 -5 l 248 651 l 92 651 l 104 712 z "},"≈":{"ha":726,"x_min":23,"x_max":652,"o":"m 612 285 l 600 224 q 444 190 517 190 q 304 224 370 190 q 169 258 239 258 q 23 224 99 258 l 35 285 q 191 319 118 319 q 330 285 265 319 q 466 251 395 251 q 612 285 536 251 m 652 488 l 640 427 q 484 393 558 393 q 345 427 410 393 q 210 461 280 461 q 64 427 140 461 l 76 488 q 232 522 159 522 q 371 488 306 522 q 507 454 436 454 q 652 488 577 454 z "},"Δ":{"ha":1012,"x_min":-73,"x_max":892,"o":"m -73 0 l 560 970 l 646 970 l 892 0 l -73 0 m 796 61 l 592 914 l 49 61 l 796 61 z "},"◊":{"ha":749,"x_min":41,"x_max":709,"o":"m 437 970 l 508 970 l 709 485 l 314 0 l 243 0 l 41 485 l 437 970 m 113 485 l 290 54 l 638 485 l 462 916 l 113 485 z "},"⁄":{"ha":875,"x_min":-22,"x_max":898,"o":"m 63 0 l -22 0 l 813 970 l 898 970 l 63 0 z "},"ﬁ":{"ha":692,"x_min":-114,"x_max":661,"o":"m 226 712 l 623 712 l 481 0 l 410 0 l 540 651 l 214 651 l 94 54 q -72 -250 51 -161 l -114 -205 q 23 54 -18 -148 l 164 760 q 481 1019 216 1019 q 661 971 583 1019 l 649 910 q 469 958 574 958 q 236 766 275 958 l 226 712 z "},"ﬂ":{"ha":706,"x_min":-114,"x_max":695,"o":"m 164 760 q 495 1019 216 1019 q 695 971 610 1019 l 501 0 l 430 0 l 616 935 q 482 958 568 958 q 236 766 275 958 l 226 712 l 439 712 l 427 651 l 214 651 l 94 54 q -72 -250 51 -161 l -114 -205 q 23 54 -18 -148 l 164 760 z "},"":{"ha":1169,"x_min":68,"x_max":1101,"o":"m 801 225 l 801 294 l 628 303 l 628 669 l 714 669 l 749 398 l 827 398 l 801 745 l 639 745 l 585 719 l 531 745 l 368 745 l 342 398 l 420 398 l 454 669 l 541 669 l 541 303 l 368 294 l 368 225 l 801 225 m 362 902 l 387 962 l 448 937 l 484 991 l 538 956 l 585 1001 l 631 956 l 686 991 l 722 937 l 782 962 l 807 902 l 871 915 l 884 850 l 950 850 l 950 785 l 1014 772 l 1001 708 l 1061 683 l 1037 622 l 1092 587 l 1055 531 l 1101 486 l 1055 439 l 1092 383 l 1036 348 l 1061 287 l 1001 262 l 1014 198 l 950 185 l 950 120 l 884 120 l 871 55 l 807 68 l 782 7 l 722 33 l 686 -22 l 631 14 l 585 -31 l 538 14 l 484 -22 l 448 33 l 387 7 l 362 68 l 298 55 l 285 120 l 219 120 l 219 185 l 155 198 l 168 262 l 106 288 l 132 348 l 77 384 l 115 439 l 68 486 l 115 531 l 77 587 l 133 623 l 108 683 l 168 708 l 155 772 l 219 785 l 219 850 l 285 850 l 298 915 l 362 902 m 585 913 q 281 788 407 913 q 156 486 156 663 q 281 182 156 307 q 585 56 407 56 q 888 182 762 56 q 1013 486 1013 307 q 888 788 1013 663 q 585 913 762 913 m 585 877 q 861 762 747 877 q 976 486 976 647 q 861 208 976 323 q 585 93 747 93 q 308 208 422 93 q 193 486 193 323 q 308 762 193 647 q 585 877 422 877 z "},"ı":{"ha":302,"x_min":19,"x_max":233,"o":"m 233 712 l 90 0 l 19 0 l 161 712 l 233 712 z "},"˘":{"ha":481,"x_min":130,"x_max":511,"o":"m 165 970 l 223 970 q 314 848 199 848 q 454 970 429 848 l 511 970 q 303 793 476 793 q 165 970 130 793 z "},"˙":{"ha":248,"x_min":145,"x_max":277,"o":"m 277 970 l 257 868 l 145 868 l 165 970 l 277 970 z "},"˚":{"ha":429,"x_min":129,"x_max":476,"o":"m 210 924 q 286 831 192 831 q 395 924 376 831 q 322 1015 413 1015 q 210 924 229 1015 m 156 923 q 331 1059 183 1059 q 449 923 476 1059 q 277 788 422 788 q 156 923 129 788 z "},"˝":{"ha":545,"x_min":133,"x_max":575,"o":"m 277 970 l 385 970 l 190 808 l 133 808 l 277 970 m 467 970 l 575 970 l 380 808 l 323 808 l 467 970 z "},"˛":{"ha":380,"x_min":-86,"x_max":202,"o":"m 202 0 q 7 -155 21 -85 q 76 -235 -9 -235 q 172 -221 134 -235 l 161 -275 q 57 -289 117 -289 q -62 -172 -86 -289 q 117 0 -42 -69 l 202 0 z "},"ˇ":{"ha":475,"x_min":165,"x_max":505,"o":"m 165 970 l 233 970 l 307 838 l 437 970 l 505 970 l 337 793 l 262 793 l 165 970 z "},"€":{"ha":953,"x_min":-23,"x_max":945,"o":"m 765 34 q 486 -7 631 -7 q 78 498 -23 -7 q 682 977 174 977 q 945 936 828 977 l 932 868 q 684 916 816 916 q 186 618 298 916 l 751 618 l 739 557 l 168 557 l 144 442 l 716 442 l 704 381 l 139 381 q 511 54 126 54 q 779 102 644 54 l 765 34 z "},"Ż":{"ha":861,"x_min":-5,"x_max":867,"o":"m 867 970 l 855 909 l 98 61 l 672 61 l 660 0 l -5 0 l 6 54 l 777 909 l 191 909 l 203 970 l 867 970 m 625 1227 l 605 1126 l 493 1126 l 513 1227 l 625 1227 z "},"ż":{"ha":671,"x_min":-22,"x_max":643,"o":"m 134 712 l 643 712 l 631 651 l 74 61 l 499 61 l 487 0 l -22 0 l -9 61 l 546 651 l 122 651 l 134 712 m 490 970 l 469 868 l 357 868 l 378 970 l 490 970 z "},"Ź":{"ha":861,"x_min":-5,"x_max":867,"o":"m 867 970 l 855 909 l 98 61 l 672 61 l 660 0 l -5 0 l 6 54 l 777 909 l 191 909 l 203 970 l 867 970 m 607 1227 l 715 1227 l 520 1065 l 463 1065 l 607 1227 z "},"ź":{"ha":671,"x_min":-22,"x_max":643,"o":"m 134 712 l 643 712 l 631 651 l 74 61 l 499 61 l 487 0 l -22 0 l -9 61 l 546 651 l 122 651 l 134 712 m 471 970 l 579 970 l 385 808 l 328 808 l 471 970 z "},"Ą":{"ha":1012,"x_min":-73,"x_max":892,"o":"m 8 0 l -73 0 l 560 970 l 645 970 l 892 0 q 696 -155 711 -85 q 766 -235 681 -235 q 861 -221 823 -235 l 850 -275 q 747 -289 806 -289 q 627 -172 604 -289 q 812 0 648 -69 l 733 326 l 298 326 l 332 387 l 719 387 l 592 914 l 8 0 z "},"ą":{"ha":764,"x_min":-22,"x_max":696,"o":"m 614 632 q 431 648 526 648 q 119 355 177 648 q 235 68 61 68 q 536 240 401 68 l 614 632 m 498 14 l 522 170 q 221 0 381 0 q 49 353 -22 0 q 450 712 121 712 q 696 683 594 712 l 559 0 q 364 -155 378 -85 q 433 -235 349 -235 q 529 -221 491 -235 l 518 -275 q 414 -289 474 -289 q 294 -172 271 -289 q 498 14 315 -69 z "},"Ć":{"ha":953,"x_min":-23,"x_max":945,"o":"m 765 34 q 486 -7 625 -7 q 78 498 -23 -7 q 682 977 174 977 q 945 936 821 977 l 933 875 q 684 916 809 916 q 149 498 233 916 q 511 54 60 54 q 777 95 637 54 l 765 34 m 702 1227 l 810 1227 l 615 1065 l 558 1065 l 702 1227 z "},"ć":{"ha":658,"x_min":-22,"x_max":639,"o":"m 518 88 q 277 0 412 0 q 51 363 -22 0 q 453 712 121 712 q 639 692 555 712 l 627 631 q 448 651 536 651 q 129 363 186 651 q 296 61 68 61 q 532 156 418 61 l 518 88 m 492 970 l 600 970 l 405 808 l 348 808 l 492 970 z "},"Ń":{"ha":1021,"x_min":12,"x_max":1010,"o":"m 12 0 l 206 970 l 284 970 l 772 104 l 945 970 l 1010 970 l 816 0 l 758 0 l 254 890 l 77 0 l 12 0 m 687 1227 l 795 1227 l 600 1065 l 543 1065 l 687 1227 z "},"ń":{"ha":790,"x_min":12,"x_max":728,"o":"m 12 0 l 155 712 l 212 712 l 183 499 q 529 712 351 712 q 686 505 728 712 l 585 0 l 514 0 l 615 505 q 513 648 644 648 q 168 422 337 648 l 83 0 l 12 0 m 531 970 l 639 970 l 444 808 l 387 808 l 531 970 z "},"Ś":{"ha":888,"x_min":12,"x_max":878,"o":"m 12 34 l 27 109 q 353 54 169 54 q 703 285 657 54 q 539 454 737 454 l 340 454 q 118 699 69 454 q 570 977 174 977 q 878 936 733 977 l 864 868 q 558 916 721 916 q 189 699 233 916 q 353 522 154 522 l 553 522 q 774 285 822 522 q 340 -7 716 -7 q 12 34 157 -7 m 621 1227 l 728 1227 l 534 1065 l 477 1065 l 621 1227 z "},"ś":{"ha":699,"x_min":5,"x_max":643,"o":"m 5 34 l 19 102 q 244 61 130 61 q 497 203 469 61 q 354 319 520 319 l 266 319 q 80 509 42 319 q 417 712 121 712 q 643 678 531 712 l 629 610 q 405 651 519 651 q 151 509 180 651 q 279 387 127 387 l 368 387 q 568 203 605 387 q 232 0 528 0 q 5 34 117 0 m 485 970 l 593 970 l 398 808 l 341 808 l 485 970 z "},"Ę":{"ha":846,"x_min":12,"x_max":843,"o":"m 574 0 l 12 0 l 206 970 l 843 970 l 831 909 l 265 909 l 188 522 l 730 522 l 718 461 l 176 461 l 96 61 l 671 61 l 659 0 q 463 -155 477 -85 q 532 -235 448 -235 q 628 -221 590 -235 l 617 -275 q 513 -289 573 -289 q 393 -172 370 -289 q 574 0 414 -69 z "},"ę":{"ha":729,"x_min":-22,"x_max":701,"o":"m 129 397 l 385 397 q 593 528 566 397 q 429 652 617 652 q 129 397 192 652 m 441 29 q 304 0 376 0 q 51 364 -22 0 q 441 712 121 712 q 663 526 701 712 q 374 334 625 334 l 116 334 q 317 61 62 61 q 572 156 458 61 l 555 75 q 345 -155 362 -72 q 414 -235 330 -235 q 510 -221 472 -235 l 499 -275 q 395 -289 455 -289 q 275 -172 252 -289 q 441 29 294 -79 z "},"Č":{"ha":953,"x_min":-23,"x_max":945,"o":"m 765 34 q 486 -7 625 -7 q 78 498 -23 -7 q 682 977 174 977 q 945 936 821 977 l 933 875 q 684 916 809 916 q 149 498 233 916 q 511 54 60 54 q 777 95 637 54 l 765 34 m 509 1227 l 576 1227 l 650 1096 l 780 1227 l 848 1227 l 680 1051 l 606 1051 l 509 1227 z "},"č":{"ha":658,"x_min":-22,"x_max":639,"o":"m 518 88 q 277 0 412 0 q 51 363 -22 0 q 453 712 121 712 q 639 692 555 712 l 627 631 q 448 651 536 651 q 129 363 186 651 q 296 61 68 61 q 532 156 418 61 l 518 88 m 291 970 l 359 970 l 433 838 l 562 970 l 630 970 l 463 793 l 388 793 l 291 970 z "},"Ď":{"ha":997,"x_min":12,"x_max":1027,"o":"m 363 61 q 857 511 767 61 q 533 909 937 909 l 265 909 l 96 61 l 363 61 m 12 0 l 206 970 l 552 970 q 935 511 1027 970 q 351 0 833 0 l 12 0 m 447 1227 l 515 1227 l 589 1096 l 718 1227 l 786 1227 l 618 1051 l 544 1051 l 447 1227 z "},"ď":{"ha":764,"x_min":-22,"x_max":1001,"o":"m 559 0 l 502 0 l 522 170 q 221 0 381 0 q 49 353 -22 0 q 450 712 121 712 q 628 699 549 712 l 682 970 l 753 970 l 559 0 m 614 632 q 431 648 526 648 q 119 355 177 648 q 235 68 61 68 q 536 240 401 68 l 614 632 m 1001 970 l 840 675 l 762 675 l 923 970 l 1001 970 z "},"Ě":{"ha":846,"x_min":12,"x_max":843,"o":"m 843 970 l 831 909 l 265 909 l 188 522 l 730 522 l 718 461 l 176 461 l 96 61 l 671 61 l 659 0 l 12 0 l 206 970 l 843 970 m 401 1227 l 469 1227 l 543 1096 l 672 1227 l 740 1227 l 572 1051 l 498 1051 l 401 1227 z "},"ě":{"ha":729,"x_min":-22,"x_max":701,"o":"m 441 712 q 663 526 701 712 q 374 334 625 334 l 116 334 q 317 61 62 61 q 572 156 458 61 l 558 88 q 304 0 446 0 q 51 364 -22 0 q 441 712 121 712 m 129 397 l 385 397 q 593 528 566 397 q 429 652 617 652 q 129 397 192 652 m 307 970 l 374 970 l 448 838 l 578 970 l 646 970 l 478 793 l 404 793 l 307 970 z "},"Ň":{"ha":1021,"x_min":12,"x_max":1010,"o":"m 12 0 l 206 970 l 284 970 l 772 104 l 945 970 l 1010 970 l 816 0 l 758 0 l 254 890 l 77 0 l 12 0 m 479 1227 l 547 1227 l 621 1096 l 751 1227 l 819 1227 l 651 1051 l 576 1051 l 479 1227 z "},"ň":{"ha":790,"x_min":12,"x_max":728,"o":"m 12 0 l 155 712 l 212 712 l 183 499 q 529 712 351 712 q 686 505 728 712 l 585 0 l 514 0 l 615 505 q 513 648 644 648 q 168 422 337 648 l 83 0 l 12 0 m 323 970 l 391 970 l 465 838 l 595 970 l 663 970 l 495 793 l 420 793 l 323 970 z "},"Ř":{"ha":838,"x_min":12,"x_max":869,"o":"m 12 0 l 206 970 l 606 970 q 823 737 869 970 q 480 452 779 522 l 718 0 l 633 0 l 401 450 l 411 499 q 743 732 705 542 q 582 907 777 907 l 264 907 l 83 0 l 12 0 m 374 1227 l 442 1227 l 516 1096 l 646 1227 l 713 1227 l 546 1051 l 471 1051 l 374 1227 z "},"ř":{"ha":465,"x_min":12,"x_max":542,"o":"m 12 0 l 155 712 l 212 712 l 175 458 q 487 712 321 712 l 473 642 q 163 395 311 642 l 83 0 l 12 0 m 203 970 l 271 970 l 345 838 l 474 970 l 542 970 l 374 793 l 300 793 l 203 970 z "},"Ť":{"ha":743,"x_min":92,"x_max":833,"o":"m 833 970 l 821 909 l 489 909 l 307 0 l 236 0 l 418 909 l 92 909 l 104 970 l 833 970 m 340 1227 l 408 1227 l 482 1096 l 612 1227 l 680 1227 l 512 1051 l 437 1051 l 340 1227 z "},"ť":{"ha":425,"x_min":9,"x_max":680,"o":"m 175 827 l 218 827 l 208 712 l 415 712 l 403 651 l 209 651 l 119 201 q 194 61 91 61 l 285 61 l 273 0 l 183 0 q 48 192 9 0 l 175 827 m 680 970 l 519 675 l 441 675 l 602 970 l 680 970 z "},"Ů":{"ha":997,"x_min":11,"x_max":986,"o":"m 87 374 l 206 970 l 277 970 l 158 374 q 413 54 94 54 q 795 374 732 54 l 915 970 l 986 970 l 867 374 q 401 -7 791 -7 q 87 374 11 -7 m 522 1116 q 597 1023 503 1023 q 706 1116 688 1023 q 633 1206 724 1206 q 522 1116 540 1206 m 467 1114 q 642 1250 494 1250 q 760 1114 787 1250 q 588 979 733 979 q 467 1114 440 979 z "},"ů":{"ha":790,"x_min":12,"x_max":728,"o":"m 728 712 l 585 0 l 528 0 l 557 213 q 197 0 389 0 q 54 207 12 0 l 155 712 l 226 712 l 125 207 q 214 64 96 64 q 572 290 403 64 l 656 712 l 728 712 m 391 924 q 467 831 373 831 q 576 924 557 831 q 503 1015 594 1015 q 391 924 410 1015 m 337 923 q 512 1059 364 1059 q 630 923 657 1059 q 458 788 603 788 q 337 923 310 788 z "},"Ā":{"ha":1012,"x_min":-73,"x_max":892,"o":"m 8 0 l -73 0 l 560 970 l 645 970 l 892 0 l 812 0 l 733 326 l 298 326 l 332 387 l 719 387 l 592 914 l 8 0 m 814 1227 l 802 1166 l 463 1166 l 475 1227 l 814 1227 z "},"ā":{"ha":764,"x_min":-22,"x_max":696,"o":"m 614 632 q 431 648 526 648 q 119 355 177 648 q 235 68 61 68 q 536 240 401 68 l 614 632 m 559 0 l 502 0 l 522 170 q 221 0 381 0 q 49 353 -22 0 q 450 712 121 712 q 696 683 594 712 l 559 0 m 667 970 l 654 909 l 315 909 l 328 970 l 667 970 z "},"Ă":{"ha":1012,"x_min":-73,"x_max":892,"o":"m 8 0 l -73 0 l 560 970 l 645 970 l 892 0 l 812 0 l 733 326 l 298 326 l 332 387 l 719 387 l 592 914 l 8 0 m 471 1227 l 529 1227 q 620 1105 505 1105 q 760 1227 735 1105 l 817 1227 q 609 1051 782 1051 q 471 1227 436 1051 z "},"ă":{"ha":764,"x_min":-22,"x_max":696,"o":"m 614 632 q 431 648 526 648 q 119 355 177 648 q 235 68 61 68 q 536 240 401 68 l 614 632 m 559 0 l 502 0 l 522 170 q 221 0 381 0 q 49 353 -22 0 q 450 712 121 712 q 696 683 594 712 l 559 0 m 324 970 l 382 970 q 473 848 357 848 q 612 970 588 848 l 670 970 q 462 793 635 793 q 324 970 289 793 z "},"Ĉ":{"ha":953,"x_min":-23,"x_max":945,"o":"m 765 34 q 486 -7 625 -7 q 78 498 -23 -7 q 682 977 174 977 q 945 936 821 977 l 933 875 q 684 916 809 916 q 149 498 233 916 q 511 54 60 54 q 777 95 637 54 l 765 34 m 667 1227 l 742 1227 l 839 1051 l 771 1051 l 694 1183 l 568 1051 l 500 1051 l 667 1227 z "},"ĉ":{"ha":658,"x_min":-22,"x_max":639,"o":"m 518 88 q 277 0 412 0 q 51 363 -22 0 q 453 712 121 712 q 639 692 555 712 l 627 631 q 448 651 536 651 q 129 363 186 651 q 296 61 68 61 q 532 156 418 61 l 518 88 m 423 970 l 498 970 l 595 793 l 527 793 l 450 925 l 323 793 l 256 793 l 423 970 z "},"Ċ":{"ha":953,"x_min":-23,"x_max":945,"o":"m 765 34 q 486 -7 625 -7 q 78 498 -23 -7 q 682 977 174 977 q 945 936 821 977 l 933 875 q 684 916 809 916 q 149 498 233 916 q 511 54 60 54 q 777 95 637 54 l 765 34 m 747 1227 l 727 1126 l 615 1126 l 635 1227 l 747 1227 z "},"ċ":{"ha":658,"x_min":-22,"x_max":639,"o":"m 518 88 q 277 0 412 0 q 51 363 -22 0 q 453 712 121 712 q 639 692 555 712 l 627 631 q 448 651 536 651 q 129 363 186 651 q 296 61 68 61 q 532 156 418 61 l 518 88 m 517 970 l 496 868 l 385 868 l 405 970 l 517 970 z "},"Đ":{"ha":1031,"x_min":-31,"x_max":1027,"o":"m 188 522 l 490 522 l 477 461 l 176 461 l 96 61 l 363 61 q 857 511 767 61 q 533 909 937 909 l 265 909 l 188 522 m 104 461 l -31 461 l -19 522 l 117 522 l 206 970 l 552 970 q 935 511 1027 970 q 351 0 833 0 l 12 0 l 104 461 z "},"đ":{"ha":764,"x_min":-22,"x_max":753,"o":"m 614 632 q 431 648 526 648 q 119 355 177 648 q 235 68 61 68 q 536 240 401 68 l 614 632 m 659 854 l 682 970 l 753 970 l 559 0 l 502 0 l 522 170 q 221 0 381 0 q 49 353 -22 0 q 450 712 121 712 q 628 699 549 712 l 647 793 l 157 793 l 170 854 l 659 854 z "},"Ē":{"ha":846,"x_min":12,"x_max":843,"o":"m 843 970 l 831 909 l 265 909 l 188 522 l 730 522 l 718 461 l 176 461 l 96 61 l 671 61 l 659 0 l 12 0 l 206 970 l 843 970 m 740 1227 l 728 1166 l 389 1166 l 401 1227 l 740 1227 z "},"ē":{"ha":729,"x_min":-22,"x_max":701,"o":"m 441 712 q 663 526 701 712 q 374 334 625 334 l 116 334 q 317 61 62 61 q 572 156 458 61 l 558 88 q 304 0 446 0 q 51 364 -22 0 q 441 712 121 712 m 129 397 l 385 397 q 593 528 566 397 q 429 652 617 652 q 129 397 192 652 m 639 970 l 627 909 l 288 909 l 300 970 l 639 970 z "},"Ĕ":{"ha":846,"x_min":12,"x_max":843,"o":"m 843 970 l 831 909 l 265 909 l 188 522 l 730 522 l 718 461 l 176 461 l 96 61 l 671 61 l 659 0 l 12 0 l 206 970 l 843 970 m 397 1227 l 455 1227 q 546 1105 431 1105 q 686 1227 661 1105 l 743 1227 q 535 1051 708 1051 q 397 1227 362 1051 z "},"ĕ":{"ha":729,"x_min":-22,"x_max":701,"o":"m 441 712 q 663 526 701 712 q 374 334 625 334 l 116 334 q 317 61 62 61 q 572 156 458 61 l 558 88 q 304 0 446 0 q 51 364 -22 0 q 441 712 121 712 m 129 397 l 385 397 q 593 528 566 397 q 429 652 617 652 q 129 397 192 652 m 296 970 l 354 970 q 445 848 330 848 q 585 970 560 848 l 642 970 q 434 793 607 793 q 296 970 261 793 z "},"Ė":{"ha":846,"x_min":12,"x_max":843,"o":"m 843 970 l 831 909 l 265 909 l 188 522 l 730 522 l 718 461 l 176 461 l 96 61 l 671 61 l 659 0 l 12 0 l 206 970 l 843 970 m 626 1227 l 606 1126 l 494 1126 l 514 1227 l 626 1227 z "},"ė":{"ha":729,"x_min":-22,"x_max":701,"o":"m 441 712 q 663 526 701 712 q 374 334 625 334 l 116 334 q 317 61 62 61 q 572 156 458 61 l 558 88 q 304 0 446 0 q 51 364 -22 0 q 441 712 121 712 m 129 397 l 385 397 q 593 528 566 397 q 429 652 617 652 q 129 397 192 652 m 525 970 l 505 868 l 393 868 l 413 970 l 525 970 z "},"Ĝ":{"ha":953,"x_min":-23,"x_max":945,"o":"m 766 38 q 497 -7 633 -7 q 78 498 -23 -7 q 682 977 174 977 q 945 936 821 977 l 933 875 q 684 916 809 916 q 149 498 233 916 q 498 54 60 54 q 704 84 588 54 l 775 441 l 846 441 l 766 38 m 627 1227 l 701 1227 l 798 1051 l 730 1051 l 654 1183 l 527 1051 l 459 1051 l 627 1227 z "},"ĝ":{"ha":764,"x_min":-33,"x_max":696,"o":"m 614 632 q 431 648 526 648 q 119 355 177 648 q 235 68 61 68 q 536 240 401 68 l 614 632 m 559 0 q 194 -258 508 -258 q -33 -224 62 -258 l -20 -163 q 208 -197 77 -197 q 488 0 449 -197 l 522 170 q 221 0 381 0 q 49 353 -22 0 q 450 712 121 712 q 696 683 594 712 l 559 0 m 446 970 l 521 970 l 618 793 l 550 793 l 473 925 l 347 793 l 279 793 l 446 970 z "},"Ğ":{"ha":953,"x_min":-23,"x_max":945,"o":"m 766 38 q 497 -7 633 -7 q 78 498 -23 -7 q 682 977 174 977 q 945 936 821 977 l 933 875 q 684 916 809 916 q 149 498 233 916 q 498 54 60 54 q 704 84 588 54 l 775 441 l 846 441 l 766 38 m 511 1227 l 569 1227 q 660 1105 545 1105 q 800 1227 775 1105 l 857 1227 q 649 1051 822 1051 q 511 1227 476 1051 z "},"ğ":{"ha":764,"x_min":-33,"x_max":696,"o":"m 614 632 q 431 648 526 648 q 119 355 177 648 q 235 68 61 68 q 536 240 401 68 l 614 632 m 559 0 q 194 -258 508 -258 q -33 -224 62 -258 l -20 -163 q 208 -197 77 -197 q 488 0 449 -197 l 522 170 q 221 0 381 0 q 49 353 -22 0 q 450 712 121 712 q 696 683 594 712 l 559 0 m 311 970 l 368 970 q 459 848 344 848 q 599 970 574 848 l 656 970 q 448 793 621 793 q 311 970 275 793 z "},"Ġ":{"ha":953,"x_min":-23,"x_max":945,"o":"m 766 38 q 497 -7 633 -7 q 78 498 -23 -7 q 682 977 174 977 q 945 936 821 977 l 933 875 q 684 916 809 916 q 149 498 233 916 q 498 54 60 54 q 704 84 588 54 l 775 441 l 846 441 l 766 38 m 747 1227 l 727 1126 l 615 1126 l 635 1227 l 747 1227 z "},"ġ":{"ha":764,"x_min":-33,"x_max":696,"o":"m 614 632 q 431 648 526 648 q 119 355 177 648 q 235 68 61 68 q 536 240 401 68 l 614 632 m 559 0 q 194 -258 508 -258 q -33 -224 62 -258 l -20 -163 q 208 -197 77 -197 q 488 0 449 -197 l 522 170 q 221 0 381 0 q 49 353 -22 0 q 450 712 121 712 q 696 683 594 712 l 559 0 m 539 970 l 519 868 l 407 868 l 427 970 l 539 970 z "},"Ģ":{"ha":953,"x_min":-23,"x_max":945,"o":"m 766 38 q 497 -7 633 -7 q 78 498 -23 -7 q 682 977 174 977 q 945 936 821 977 l 933 875 q 684 916 809 916 q 149 498 233 916 q 498 54 60 54 q 704 84 588 54 l 775 441 l 846 441 l 766 38 m 441 -68 l 302 -258 l 231 -258 l 370 -68 l 441 -68 z "},"ģ":{"ha":764,"x_min":-33,"x_max":696,"o":"m 614 632 q 431 648 526 648 q 119 355 177 648 q 235 68 61 68 q 536 240 401 68 l 614 632 m 559 0 q 194 -258 508 -258 q -33 -224 62 -258 l -20 -163 q 208 -197 77 -197 q 488 0 449 -197 l 522 170 q 221 0 381 0 q 49 353 -22 0 q 450 712 121 712 q 696 683 594 712 l 559 0 m 602 970 l 463 780 l 391 780 l 531 970 l 602 970 z "},"Ĥ":{"ha":1021,"x_min":12,"x_max":1010,"o":"m 12 0 l 206 970 l 277 970 l 188 522 l 849 522 l 939 970 l 1010 970 l 816 0 l 745 0 l 837 461 l 176 461 l 83 0 l 12 0 m 612 1227 l 686 1227 l 783 1051 l 715 1051 l 639 1183 l 512 1051 l 444 1051 l 612 1227 z "},"ĥ":{"ha":790,"x_min":13,"x_max":728,"o":"m 13 0 l 207 970 l 278 970 l 184 499 q 530 712 351 712 q 687 505 728 712 l 586 0 l 515 0 l 616 505 q 513 648 644 648 q 169 422 338 648 l 84 0 l 13 0 m 252 1244 l 327 1244 l 424 1068 l 356 1068 l 279 1200 l 153 1068 l 85 1068 l 252 1244 z "},"Ħ":{"ha":1021,"x_min":12,"x_max":1010,"o":"m 899 773 l 939 970 l 1010 970 l 816 0 l 745 0 l 837 461 l 176 461 l 83 0 l 12 0 l 206 970 l 277 970 l 238 773 l 899 773 m 226 712 l 188 522 l 849 522 l 887 712 l 226 712 z "},"ħ":{"ha":790,"x_min":12,"x_max":749,"o":"m 242 793 l 183 499 q 529 712 351 712 q 686 505 728 712 l 585 0 l 514 0 l 615 505 q 513 648 644 648 q 168 422 337 648 l 83 0 l 12 0 l 206 970 l 277 970 l 254 854 l 749 854 l 737 793 l 242 793 z "},"Ĩ":{"ha":356,"x_min":47,"x_max":492,"o":"m 312 970 l 118 0 l 47 0 l 241 970 l 312 970 m 148 1196 q 242 1227 195 1227 q 313 1210 277 1227 q 387 1192 349 1192 q 492 1223 438 1192 l 480 1162 q 386 1131 433 1131 q 315 1149 351 1131 q 241 1166 279 1166 q 136 1135 190 1166 l 148 1196 z "},"ĩ":{"ha":302,"x_min":20,"x_max":418,"o":"m 233 712 l 91 0 l 20 0 l 162 712 l 233 712 m 73 939 q 168 970 120 970 q 239 952 203 970 q 313 935 275 935 q 418 966 363 935 l 406 905 q 311 873 359 873 q 240 891 276 873 q 166 909 204 909 q 61 878 115 909 l 73 939 z "},"Ī":{"ha":356,"x_min":47,"x_max":493,"o":"m 312 970 l 118 0 l 47 0 l 241 970 l 312 970 m 493 1227 l 481 1166 l 142 1166 l 154 1227 l 493 1227 z "},"ī":{"ha":302,"x_min":20,"x_max":418,"o":"m 233 712 l 91 0 l 20 0 l 162 712 l 233 712 m 418 970 l 406 909 l 67 909 l 79 970 l 418 970 z "},"Ĭ":{"ha":356,"x_min":47,"x_max":496,"o":"m 312 970 l 118 0 l 47 0 l 241 970 l 312 970 m 151 1227 l 208 1227 q 299 1105 184 1105 q 439 1227 414 1105 l 496 1227 q 288 1051 461 1051 q 151 1227 115 1051 z "},"ĭ":{"ha":302,"x_min":20,"x_max":422,"o":"m 233 712 l 91 0 l 20 0 l 162 712 l 233 712 m 76 970 l 134 970 q 224 848 109 848 q 364 970 340 848 l 422 970 q 214 793 387 793 q 76 970 41 793 z "},"Į":{"ha":356,"x_min":-157,"x_max":311,"o":"m 46 0 l 240 970 l 311 970 l 117 0 q -64 -155 -50 -85 q 5 -235 -80 -235 q 100 -221 62 -235 l 90 -275 q -14 -289 45 -289 q -134 -172 -157 -289 q 46 0 -113 -69 z "},"į":{"ha":315,"x_min":-178,"x_max":298,"o":"m 298 970 l 281 888 l 197 888 l 213 970 l 298 970 m 26 0 l 168 712 l 239 712 l 97 0 q -84 -155 -71 -85 q -16 -235 -100 -235 q 80 -221 42 -235 l 69 -275 q -35 -289 25 -289 q -154 -172 -178 -289 q 26 0 -134 -69 z "},"İ":{"ha":356,"x_min":46,"x_max":379,"o":"m 311 970 l 117 0 l 46 0 l 240 970 l 311 970 m 379 1227 l 359 1126 l 247 1126 l 267 1227 l 379 1227 z "},"Ĳ":{"ha":797,"x_min":46,"x_max":786,"o":"m 311 970 l 117 0 l 46 0 l 240 970 l 311 970 m 786 970 l 648 279 q 283 0 592 0 l 296 61 q 576 279 533 61 l 715 970 l 786 970 z "},"ĳ":{"ha":631,"x_min":26,"x_max":613,"o":"m 298 970 l 281 888 l 197 888 l 213 970 l 298 970 m 239 712 l 97 0 l 26 0 l 168 712 l 239 712 m 613 970 l 597 888 l 512 888 l 528 970 l 613 970 m 555 712 l 423 54 q 257 -250 380 -161 l 215 -205 q 352 54 311 -148 l 484 712 l 555 712 z "},"Ĵ":{"ha":441,"x_min":-72,"x_max":573,"o":"m 431 970 l 292 279 q -72 0 237 0 l -60 61 q 221 279 178 61 l 359 970 l 431 970 m 401 1227 l 476 1227 l 573 1051 l 505 1051 l 429 1183 l 302 1051 l 234 1051 l 401 1227 z "},"ĵ":{"ha":315,"x_min":-100,"x_max":388,"o":"m 239 712 l 108 54 q -58 -250 64 -161 l -100 -205 q 37 54 -4 -148 l 168 712 l 239 712 m 216 970 l 291 970 l 388 793 l 320 793 l 243 925 l 117 793 l 49 793 l 216 970 z "},"Ķ":{"ha":899,"x_min":12,"x_max":943,"o":"m 277 970 l 83 0 l 12 0 l 206 970 l 277 970 m 943 970 l 378 494 l 785 0 l 686 0 l 304 473 l 313 522 l 838 970 l 943 970 m 404 -68 l 264 -258 l 193 -258 l 333 -68 l 404 -68 z "},"ķ":{"ha":747,"x_min":5,"x_max":731,"o":"m 5 0 l 199 970 l 271 970 l 181 521 q 533 712 350 712 q 694 527 731 712 q 408 280 663 371 l 606 0 l 519 0 l 339 268 l 348 311 q 622 521 595 386 q 505 651 648 651 q 167 452 340 651 l 77 0 l 5 0 m 321 -68 l 182 -258 l 111 -258 l 250 -68 l 321 -68 z "},"ĸ":{"ha":680,"x_min":5,"x_max":722,"o":"m 722 712 l 324 386 l 583 0 l 484 0 l 254 356 l 264 406 l 628 712 l 722 712 m 5 0 l 148 712 l 219 712 l 77 0 l 5 0 z "},"Ĺ":{"ha":775,"x_min":12,"x_max":657,"o":"m 277 970 l 96 61 l 657 61 l 645 0 l 12 0 l 206 970 l 277 970 m 364 1227 l 472 1227 l 277 1065 l 220 1065 l 364 1227 z "},"ĺ":{"ha":315,"x_min":26,"x_max":500,"o":"m 291 970 l 97 0 l 26 0 l 220 970 l 291 970 m 393 1244 l 500 1244 l 306 1082 l 249 1082 l 393 1244 z "},"Ļ":{"ha":775,"x_min":12,"x_max":657,"o":"m 277 970 l 96 61 l 657 61 l 645 0 l 12 0 l 206 970 l 277 970 m 368 -68 l 228 -258 l 157 -258 l 296 -68 l 368 -68 z "},"ļ":{"ha":315,"x_min":-131,"x_max":291,"o":"m 291 970 l 97 0 l 26 0 l 220 970 l 291 970 m 80 -68 l -60 -258 l -131 -258 l 9 -68 l 80 -68 z "},"Ľ":{"ha":775,"x_min":12,"x_max":657,"o":"m 277 970 l 96 61 l 657 61 l 645 0 l 12 0 l 206 970 l 277 970 m 606 970 l 446 675 l 368 675 l 528 970 l 606 970 z "},"ľ":{"ha":315,"x_min":26,"x_max":538,"o":"m 291 970 l 97 0 l 26 0 l 220 970 l 291 970 m 538 970 l 378 675 l 300 675 l 460 970 l 538 970 z "},"Ŀ":{"ha":775,"x_min":12,"x_max":657,"o":"m 277 970 l 96 61 l 657 61 l 645 0 l 12 0 l 206 970 l 277 970 m 361 485 q 439 549 374 549 q 490 485 503 549 q 413 420 477 420 q 361 485 349 420 z "},"ŀ":{"ha":315,"x_min":26,"x_max":397,"o":"m 291 970 l 97 0 l 26 0 l 220 970 l 291 970 m 256 384 q 333 448 269 448 q 385 384 397 448 q 307 319 372 319 q 256 384 243 319 z "},"Ņ":{"ha":1021,"x_min":12,"x_max":1010,"o":"m 12 0 l 206 970 l 284 970 l 772 104 l 945 970 l 1010 970 l 816 0 l 758 0 l 254 890 l 77 0 l 12 0 m 453 -68 l 313 -258 l 242 -258 l 382 -68 l 453 -68 z "},"ņ":{"ha":790,"x_min":12,"x_max":728,"o":"m 12 0 l 155 712 l 212 712 l 183 499 q 529 712 351 712 q 686 505 728 712 l 585 0 l 514 0 l 615 505 q 513 648 644 648 q 168 422 337 648 l 83 0 l 12 0 m 372 -68 l 232 -258 l 161 -258 l 300 -68 l 372 -68 z "},"ŉ":{"ha":790,"x_min":-63,"x_max":728,"o":"m 176 970 l 15 675 l -63 675 l 98 970 l 176 970 m 12 0 l 155 712 l 212 712 l 183 499 q 529 712 351 712 q 686 505 728 712 l 585 0 l 514 0 l 615 505 q 513 648 644 648 q 168 422 337 648 l 83 0 l 12 0 z "},"Ŋ":{"ha":1021,"x_min":12,"x_max":1010,"o":"m 945 970 l 1010 970 l 827 54 q 661 -250 783 -161 l 618 -205 q 752 10 710 -155 l 254 890 l 77 0 l 12 0 l 206 970 l 284 970 l 772 104 l 945 970 z "},"ŋ":{"ha":790,"x_min":12,"x_max":728,"o":"m 615 505 q 513 648 644 648 q 168 422 337 648 l 83 0 l 12 0 l 155 712 l 212 712 l 183 499 q 529 712 351 712 q 686 505 728 712 l 596 54 q 430 -250 553 -161 l 388 -205 q 525 54 484 -148 l 615 505 z "},"Ō":{"ha":1116,"x_min":-23,"x_max":1140,"o":"m 154 488 q 476 54 67 54 q 964 488 878 54 q 648 916 1050 916 q 154 488 239 916 m 75 484 q 661 977 174 977 q 1042 484 1140 977 q 464 -7 943 -7 q 75 484 -23 -7 m 893 1227 l 881 1166 l 542 1166 l 554 1227 l 893 1227 z "},"ō":{"ha":787,"x_min":-22,"x_max":760,"o":"m 121 359 q 308 54 60 54 q 616 359 555 54 q 429 658 676 658 q 121 359 181 658 m 50 356 q 441 719 122 719 q 687 356 760 719 q 296 -6 614 -6 q 50 356 -22 -6 m 661 970 l 648 909 l 309 909 l 321 970 l 661 970 z "},"Ŏ":{"ha":1116,"x_min":-23,"x_max":1140,"o":"m 154 488 q 476 54 67 54 q 964 488 878 54 q 648 916 1050 916 q 154 488 239 916 m 75 484 q 661 977 174 977 q 1042 484 1140 977 q 464 -7 943 -7 q 75 484 -23 -7 m 551 1227 l 608 1227 q 699 1105 584 1105 q 839 1227 814 1105 l 897 1227 q 688 1051 861 1051 q 551 1227 515 1051 z "},"ŏ":{"ha":787,"x_min":-22,"x_max":760,"o":"m 121 359 q 308 54 60 54 q 616 359 555 54 q 429 658 676 658 q 121 359 181 658 m 50 356 q 441 719 122 719 q 687 356 760 719 q 296 -6 614 -6 q 50 356 -22 -6 m 318 970 l 376 970 q 467 848 351 848 q 606 970 582 848 l 664 970 q 456 793 629 793 q 318 970 283 793 z "},"Ő":{"ha":1116,"x_min":-23,"x_max":1140,"o":"m 154 488 q 476 54 67 54 q 964 488 878 54 q 648 916 1050 916 q 154 488 239 916 m 75 484 q 661 977 174 977 q 1042 484 1140 977 q 464 -7 943 -7 q 75 484 -23 -7 m 664 1227 l 772 1227 l 577 1065 l 520 1065 l 664 1227 m 854 1227 l 962 1227 l 768 1065 l 711 1065 l 854 1227 z "},"ő":{"ha":787,"x_min":-22,"x_max":760,"o":"m 121 359 q 308 54 60 54 q 616 359 555 54 q 429 658 676 658 q 121 359 181 658 m 50 356 q 441 719 122 719 q 687 356 760 719 q 296 -6 614 -6 q 50 356 -22 -6 m 452 970 l 559 970 l 365 808 l 308 808 l 452 970 m 642 970 l 750 970 l 555 808 l 498 808 l 642 970 z "},"Ŕ":{"ha":838,"x_min":12,"x_max":869,"o":"m 12 0 l 206 970 l 606 970 q 823 737 869 970 q 480 452 779 522 l 718 0 l 633 0 l 401 450 l 411 499 q 743 732 705 542 q 582 907 777 907 l 264 907 l 83 0 l 12 0 m 570 1227 l 677 1227 l 483 1065 l 426 1065 l 570 1227 z "},"ŕ":{"ha":465,"x_min":12,"x_max":518,"o":"m 12 0 l 155 712 l 212 712 l 175 458 q 487 712 321 712 l 473 642 q 163 395 311 642 l 83 0 l 12 0 m 410 970 l 518 970 l 323 808 l 267 808 l 410 970 z "},"Ŗ":{"ha":838,"x_min":12,"x_max":869,"o":"m 12 0 l 206 970 l 606 970 q 823 737 869 970 q 480 452 779 522 l 718 0 l 633 0 l 401 450 l 411 499 q 743 732 705 542 q 582 907 777 907 l 264 907 l 83 0 l 12 0 m 370 -68 l 231 -258 l 159 -258 l 299 -68 l 370 -68 z "},"ŗ":{"ha":465,"x_min":-142,"x_max":488,"o":"m 13 0 l 155 712 l 213 712 l 176 458 q 488 712 322 712 l 473 642 q 163 395 312 642 l 84 0 l 13 0 m 68 -68 l -71 -258 l -142 -258 l -3 -68 l 68 -68 z "},"Ŝ":{"ha":888,"x_min":12,"x_max":878,"o":"m 12 34 l 27 109 q 353 54 169 54 q 703 285 657 54 q 539 454 737 454 l 340 454 q 118 699 69 454 q 570 977 174 977 q 878 936 733 977 l 864 868 q 558 916 721 916 q 189 699 233 916 q 353 522 154 522 l 553 522 q 774 285 822 522 q 340 -7 716 -7 q 12 34 157 -7 m 566 1227 l 640 1227 l 737 1051 l 669 1051 l 593 1183 l 466 1051 l 398 1051 l 566 1227 z "},"ŝ":{"ha":699,"x_min":5,"x_max":643,"o":"m 5 34 l 19 102 q 244 61 130 61 q 497 203 469 61 q 354 319 520 319 l 266 319 q 80 509 42 319 q 417 712 121 712 q 643 678 531 712 l 629 610 q 405 651 519 651 q 151 509 180 651 q 279 387 127 387 l 368 387 q 568 203 605 387 q 232 0 528 0 q 5 34 117 0 m 416 970 l 491 970 l 588 793 l 520 793 l 444 925 l 317 793 l 249 793 l 416 970 z "},"Ş":{"ha":888,"x_min":12,"x_max":878,"o":"m 288 -6 q 12 34 136 -1 l 27 109 q 353 54 169 54 q 703 285 657 54 q 539 454 737 454 l 340 454 q 118 699 69 454 q 570 977 174 977 q 878 936 733 977 l 864 868 q 558 916 721 916 q 189 699 233 916 q 353 522 154 522 l 553 522 q 774 285 822 522 q 354 -7 718 -1 l 321 -52 q 449 -169 473 -52 q 262 -286 426 -286 q 123 -252 189 -286 l 134 -193 q 273 -233 199 -233 q 386 -169 373 -233 q 315 -105 399 -105 l 212 -105 l 288 -6 z "},"ş":{"ha":699,"x_min":5,"x_max":643,"o":"m 218 0 q 5 34 111 2 l 19 102 q 244 61 130 61 q 497 203 469 61 q 354 319 520 319 l 266 319 q 80 509 42 319 q 417 712 121 712 q 643 678 531 712 l 629 610 q 405 651 519 651 q 151 509 180 651 q 279 387 127 387 l 368 387 q 568 203 605 387 q 286 2 532 19 l 246 -52 q 374 -169 398 -52 q 188 -286 351 -286 q 48 -252 115 -286 l 60 -193 q 198 -233 125 -233 q 311 -169 298 -233 q 241 -105 324 -105 l 137 -105 l 218 0 z "},"Ș":{"ha":888,"x_min":12,"x_max":878,"o":"m 12 34 l 27 109 q 353 54 169 54 q 703 285 657 54 q 539 454 737 454 l 340 454 q 118 699 69 454 q 570 977 174 977 q 878 936 733 977 l 864 868 q 558 916 721 916 q 189 699 233 916 q 353 522 154 522 l 553 522 q 774 285 822 522 q 340 -7 716 -7 q 12 34 157 -7 m 387 -68 l 248 -258 l 176 -258 l 316 -68 l 387 -68 z "},"ș":{"ha":699,"x_min":5,"x_max":643,"o":"m 5 34 l 19 102 q 244 61 130 61 q 497 203 469 61 q 354 319 520 319 l 266 319 q 80 509 42 319 q 417 712 121 712 q 643 678 531 712 l 629 610 q 405 651 519 651 q 151 509 180 651 q 279 387 127 387 l 368 387 q 568 203 605 387 q 232 0 528 0 q 5 34 117 0 m 326 -68 l 186 -258 l 115 -258 l 255 -68 l 326 -68 z "},"Ţ":{"ha":743,"x_min":77,"x_max":833,"o":"m 833 970 l 821 909 l 489 909 l 307 0 l 236 0 l 418 909 l 92 909 l 104 970 l 833 970 m 288 -68 l 148 -258 l 77 -258 l 216 -68 l 288 -68 z "},"ţ":{"ha":425,"x_min":-63,"x_max":415,"o":"m 175 827 l 218 827 l 208 712 l 415 712 l 403 651 l 209 651 l 119 201 q 194 61 91 61 l 285 61 l 273 0 l 183 0 q 48 192 9 0 l 175 827 m 148 -68 l 8 -258 l -63 -258 l 77 -68 l 148 -68 z "},"Ŧ":{"ha":743,"x_min":1,"x_max":833,"o":"m 339 515 l 418 909 l 92 909 l 104 970 l 833 970 l 821 909 l 489 909 l 410 515 l 743 515 l 730 454 l 398 454 l 307 0 l 236 0 l 327 454 l 1 454 l 14 515 l 339 515 z "},"ŧ":{"ha":425,"x_min":-28,"x_max":415,"o":"m 90 402 l 175 827 l 218 827 l 208 712 l 415 712 l 403 651 l 209 651 l 159 402 l 353 402 l 341 341 l 147 341 l 119 201 q 194 61 91 61 l 285 61 l 273 0 l 183 0 q 48 192 9 0 l 78 341 l -28 341 l -16 402 l 90 402 z "},"Ũ":{"ha":997,"x_min":11,"x_max":986,"o":"m 87 374 l 206 970 l 277 970 l 158 374 q 413 54 94 54 q 795 374 732 54 l 915 970 l 986 970 l 867 374 q 401 -7 791 -7 q 87 374 11 -7 m 461 1196 q 555 1227 508 1227 q 627 1210 591 1227 q 701 1192 663 1192 q 806 1223 751 1192 l 793 1162 q 699 1131 747 1131 q 628 1149 664 1131 q 554 1166 592 1166 q 449 1135 503 1166 l 461 1196 z "},"ũ":{"ha":790,"x_min":12,"x_max":728,"o":"m 728 712 l 585 0 l 528 0 l 557 213 q 197 0 389 0 q 54 207 12 0 l 155 712 l 226 712 l 125 207 q 214 64 96 64 q 572 290 403 64 l 656 712 l 728 712 m 317 939 q 412 970 364 970 q 483 952 447 970 q 557 935 519 935 q 662 966 608 935 l 650 905 q 555 873 603 873 q 484 891 520 873 q 410 909 448 909 q 305 878 359 909 l 317 939 z "},"Ū":{"ha":997,"x_min":11,"x_max":986,"o":"m 87 374 l 206 970 l 277 970 l 158 374 q 413 54 94 54 q 795 374 732 54 l 915 970 l 986 970 l 867 374 q 401 -7 791 -7 q 87 374 11 -7 m 806 1227 l 794 1166 l 455 1166 l 467 1227 l 806 1227 z "},"ū":{"ha":790,"x_min":12,"x_max":728,"o":"m 728 712 l 585 0 l 528 0 l 557 213 q 197 0 389 0 q 54 207 12 0 l 155 712 l 226 712 l 125 207 q 214 64 96 64 q 572 290 403 64 l 656 712 l 728 712 m 663 970 l 650 909 l 311 909 l 323 970 l 663 970 z "},"Ŭ":{"ha":997,"x_min":11,"x_max":986,"o":"m 87 374 l 206 970 l 277 970 l 158 374 q 413 54 94 54 q 795 374 732 54 l 915 970 l 986 970 l 867 374 q 401 -7 791 -7 q 87 374 11 -7 m 464 1227 l 522 1227 q 612 1105 497 1105 q 752 1227 728 1105 l 810 1227 q 602 1051 774 1051 q 464 1227 429 1051 z "},"ŭ":{"ha":790,"x_min":12,"x_max":728,"o":"m 728 712 l 585 0 l 528 0 l 557 213 q 197 0 389 0 q 54 207 12 0 l 155 712 l 226 712 l 125 207 q 214 64 96 64 q 572 290 403 64 l 656 712 l 728 712 m 320 970 l 378 970 q 469 848 353 848 q 608 970 584 848 l 666 970 q 458 793 631 793 q 320 970 285 793 z "},"Ű":{"ha":997,"x_min":11,"x_max":986,"o":"m 87 374 l 206 970 l 277 970 l 158 374 q 413 54 94 54 q 795 374 732 54 l 915 970 l 986 970 l 867 374 q 401 -7 791 -7 q 87 374 11 -7 m 570 1227 l 678 1227 l 484 1065 l 427 1065 l 570 1227 m 761 1227 l 869 1227 l 674 1065 l 617 1065 l 761 1227 z "},"ű":{"ha":790,"x_min":12,"x_max":732,"o":"m 728 712 l 585 0 l 528 0 l 557 213 q 197 0 389 0 q 54 207 12 0 l 155 712 l 226 712 l 125 207 q 214 64 96 64 q 572 290 403 64 l 656 712 l 728 712 m 433 970 l 541 970 l 347 808 l 290 808 l 433 970 m 624 970 l 732 970 l 537 808 l 480 808 l 624 970 z "},"Ų":{"ha":997,"x_min":12,"x_max":986,"o":"m 393 -7 q 87 374 12 -3 l 206 970 l 277 970 l 158 374 q 413 54 94 54 q 795 374 732 54 l 915 970 l 986 970 l 867 374 q 473 -3 798 30 q 298 -155 311 -87 q 367 -235 282 -235 q 463 -221 425 -235 l 452 -275 q 348 -289 408 -289 q 228 -172 205 -289 q 393 -7 248 -74 z "},"ų":{"ha":790,"x_min":12,"x_max":728,"o":"m 529 7 l 557 213 q 197 0 389 0 q 54 207 12 0 l 155 712 l 226 712 l 125 207 q 214 64 96 64 q 572 290 403 64 l 656 712 l 728 712 l 585 0 q 390 -155 404 -85 q 459 -235 374 -235 q 555 -221 517 -235 l 544 -275 q 440 -289 500 -289 q 320 -172 297 -289 q 529 7 341 -69 z "},"Ŵ":{"ha":1267,"x_min":100,"x_max":1308,"o":"m 121 970 l 189 970 l 173 68 l 667 970 l 738 970 l 878 60 l 1246 970 l 1308 970 l 918 0 l 815 0 l 686 886 l 201 0 l 100 0 l 121 970 m 718 1227 l 793 1227 l 890 1051 l 822 1051 l 745 1183 l 618 1051 l 551 1051 l 718 1227 z "},"ŵ":{"ha":1136,"x_min":-15,"x_max":1070,"o":"m 195 712 l 267 712 q 127 353 168 559 q 241 61 68 61 q 511 373 448 61 l 578 712 l 650 712 l 582 373 q 726 61 519 61 q 958 353 899 61 q 962 712 999 559 l 1033 712 q 1029 353 1070 559 q 714 0 958 0 q 516 230 507 0 q 229 0 436 0 q 56 353 -15 0 q 195 712 97 559 m 629 970 l 703 970 l 800 793 l 732 793 l 656 925 l 529 793 l 461 793 l 629 970 z "},"Ŷ":{"ha":848,"x_min":121,"x_max":922,"o":"m 121 970 l 206 970 l 408 407 l 844 970 l 922 970 l 432 339 l 364 0 l 293 0 l 361 339 l 121 970 m 525 1227 l 600 1227 l 696 1051 l 629 1051 l 552 1183 l 425 1051 l 357 1051 l 525 1227 z "},"ŷ":{"ha":790,"x_min":-7,"x_max":728,"o":"m 557 213 q 197 0 389 0 q 54 207 12 0 l 155 712 l 226 712 l 125 207 q 214 64 96 64 q 572 290 403 64 l 656 712 l 728 712 l 585 0 q 220 -258 534 -258 q -7 -224 88 -258 l 5 -163 q 233 -197 102 -197 q 514 0 475 -197 l 557 213 m 456 970 l 530 970 l 627 793 l 559 793 l 483 925 l 356 793 l 288 793 l 456 970 z "},"ſ":{"ha":330,"x_min":-114,"x_max":652,"o":"m 161 747 q 499 1005 213 1005 q 652 978 587 1005 l 640 917 q 486 944 578 944 q 232 745 272 944 l 94 54 q -72 -250 51 -161 l -114 -205 q 23 54 -14 -127 l 161 747 z "},"Ё":{"ha":846,"x_min":12,"x_max":843,"o":"m 843 970 l 831 909 l 265 909 l 188 522 l 730 522 l 718 461 l 176 461 l 96 61 l 671 61 l 659 0 l 12 0 l 206 970 l 843 970 m 722 1214 l 704 1126 l 612 1126 l 630 1214 l 722 1214 m 505 1214 l 487 1126 l 395 1126 l 413 1214 l 505 1214 z "},"А":{"ha":1012,"x_min":-73,"x_max":892,"o":"m 8 0 l -73 0 l 560 970 l 645 970 l 892 0 l 812 0 l 733 326 l 298 326 l 332 387 l 719 387 l 592 914 l 8 0 z "},"Б":{"ha":882,"x_min":12,"x_max":885,"o":"m 885 970 l 873 909 l 266 909 l 97 63 l 427 63 q 684 273 643 63 q 477 495 729 495 l 349 495 l 361 556 l 495 556 q 758 280 812 556 q 426 0 701 0 l 12 0 l 206 970 l 885 970 z "},"В":{"ha":902,"x_min":12,"x_max":897,"o":"m 12 0 l 206 970 l 620 970 q 851 744 897 970 q 604 507 819 578 q 771 280 809 471 q 412 0 715 0 l 12 0 m 416 61 q 694 278 651 61 q 439 470 733 470 l 385 470 l 395 518 q 778 739 740 549 q 603 909 812 909 l 265 909 l 96 61 l 416 61 z "},"Г":{"ha":687,"x_min":12,"x_max":785,"o":"m 12 0 l 206 970 l 785 970 l 772 909 l 265 909 l 83 0 l 12 0 z "},"Д":{"ha":1098,"x_min":0,"x_max":1047,"o":"m 283 61 l 850 61 l 850 909 l 477 909 q 283 61 477 231 m 0 -258 l 0 61 l 125 61 q 406 909 406 61 l 406 970 l 922 970 l 922 61 l 1047 61 l 1047 -258 l 976 -258 l 976 0 l 71 0 l 71 -258 l 0 -258 z "},"Е":{"ha":846,"x_min":12,"x_max":843,"o":"m 843 970 l 831 909 l 265 909 l 188 522 l 730 522 l 718 461 l 176 461 l 96 61 l 671 61 l 659 0 l 12 0 l 206 970 l 843 970 z "},"Ж":{"ha":1383,"x_min":-49,"x_max":1463,"o":"m 1141 0 q 938 428 985 366 q 810 490 890 490 l 820 540 q 1109 755 956 540 q 1391 970 1263 970 l 1463 970 l 1451 909 l 1398 909 q 1163 725 1291 909 q 932 514 1035 541 q 1028 438 981 505 q 1239 0 1076 370 l 1141 0 m 825 970 l 631 0 l 559 0 l 753 970 l 825 970 m -49 0 q 337 438 262 370 q 465 514 412 505 q 317 725 371 541 q 156 909 263 909 l 102 909 l 115 970 l 187 970 q 382 755 315 970 q 586 540 450 540 l 576 490 q 424 428 496 490 q 49 0 352 366 l -49 0 z "},"З":{"ha":756,"x_min":-22,"x_max":787,"o":"m 159 936 q 438 977 302 977 q 734 712 787 977 q 529 492 700 538 q 646 271 682 448 q 241 -7 591 -7 q -22 34 106 -7 l -8 102 q 254 54 118 54 q 575 271 532 54 q 388 461 613 461 l 165 461 l 178 522 l 398 522 q 663 712 625 522 q 426 916 704 916 q 145 868 290 916 l 159 936 z "},"И":{"ha":973,"x_min":12,"x_max":962,"o":"m 697 0 l 869 863 l 90 0 l 12 0 l 206 970 l 277 970 l 105 107 l 884 970 l 962 970 l 768 0 l 697 0 z "},"Й":{"ha":973,"x_min":12,"x_max":962,"o":"m 465 1210 l 522 1210 q 613 1088 498 1088 q 753 1210 728 1088 l 810 1210 q 602 1034 775 1034 q 465 1210 429 1034 m 697 0 l 869 863 l 90 0 l 12 0 l 206 970 l 277 970 l 105 107 l 884 970 l 962 970 l 768 0 l 697 0 z "},"К":{"ha":836,"x_min":12,"x_max":916,"o":"m 594 0 q 390 428 437 366 q 263 490 343 490 l 273 540 q 562 755 408 540 q 844 970 716 970 l 916 970 l 904 909 l 850 909 q 609 725 743 909 q 385 514 474 541 q 481 438 433 505 q 692 0 528 370 l 594 0 m 277 970 l 83 0 l 12 0 l 206 970 l 277 970 z "},"Л":{"ha":972,"x_min":-96,"x_max":962,"o":"m -84 61 q 293 543 197 61 l 378 970 l 962 970 l 768 0 l 696 0 l 878 909 l 437 909 l 364 543 q -96 0 256 0 l -84 61 z "},"М":{"ha":1200,"x_min":12,"x_max":1190,"o":"m 12 0 l 206 970 l 277 970 l 538 83 l 1125 970 l 1190 970 l 996 0 l 931 0 l 1099 839 l 546 0 l 488 0 l 245 846 l 77 0 l 12 0 z "},"Н":{"ha":966,"x_min":12,"x_max":956,"o":"m 12 0 l 206 970 l 277 970 l 189 529 l 796 529 l 884 970 l 956 970 l 762 0 l 690 0 l 784 468 l 177 468 l 83 0 l 12 0 z "},"О":{"ha":1116,"x_min":-23,"x_max":1140,"o":"m 154 488 q 476 54 67 54 q 964 488 878 54 q 648 916 1050 916 q 154 488 239 916 m 75 484 q 661 977 174 977 q 1042 484 1140 977 q 464 -7 943 -7 q 75 484 -23 -7 z "},"П":{"ha":966,"x_min":12,"x_max":956,"o":"m 12 0 l 206 970 l 956 970 l 762 0 l 690 0 l 872 909 l 265 909 l 83 0 l 12 0 z "},"Р":{"ha":857,"x_min":12,"x_max":897,"o":"m 12 0 l 206 970 l 613 970 q 843 703 897 970 q 323 369 791 441 l 323 434 q 763 698 721 488 q 589 907 804 907 l 264 907 l 83 0 l 12 0 z "},"С":{"ha":953,"x_min":-23,"x_max":945,"o":"m 765 34 q 486 -7 625 -7 q 78 498 -23 -7 q 682 977 174 977 q 945 936 821 977 l 933 875 q 684 916 809 916 q 149 498 233 916 q 511 54 60 54 q 777 95 637 54 l 765 34 z "},"Т":{"ha":743,"x_min":92,"x_max":833,"o":"m 833 970 l 821 909 l 489 909 l 307 0 l 236 0 l 418 909 l 92 909 l 104 970 l 833 970 z "},"У":{"ha":886,"x_min":24,"x_max":967,"o":"m 967 970 l 475 182 q 175 0 361 0 q 24 47 88 0 l 37 109 q 180 61 99 61 q 393 184 326 61 l 132 970 l 205 970 l 446 251 l 886 970 l 967 970 z "},"Ф":{"ha":1115,"x_min":-8,"x_max":1125,"o":"m 441 77 q 70 490 -8 102 q 604 893 145 868 l 620 970 l 690 970 l 675 894 q 1049 490 1125 871 q 511 76 970 98 l 496 0 l 426 0 l 441 77 m 454 138 l 592 831 q 146 488 210 807 q 454 138 81 163 m 663 832 l 524 138 q 971 488 905 161 q 663 832 1036 810 z "},"Х":{"ha":895,"x_min":-73,"x_max":969,"o":"m 406 485 l 121 970 l 203 970 l 456 538 l 881 970 l 969 970 l 491 485 l 775 0 l 694 0 l 441 431 l 16 0 l -73 0 l 406 485 z "},"Ц":{"ha":1002,"x_min":12,"x_max":906,"o":"m 12 0 l 206 970 l 277 970 l 96 61 l 653 61 l 835 970 l 906 970 l 724 61 l 850 61 l 786 -258 l 715 -258 l 766 0 l 12 0 z "},"Ч":{"ha":894,"x_min":59,"x_max":883,"o":"m 883 970 l 689 0 l 618 0 l 704 430 q 397 353 555 353 q 124 679 59 353 l 182 970 l 254 970 l 195 677 q 414 416 143 416 q 719 507 583 416 l 812 970 l 883 970 z "},"Ш":{"ha":1204,"x_min":12,"x_max":1193,"o":"m 12 0 l 206 970 l 277 970 l 96 61 l 482 61 l 664 970 l 735 970 l 553 61 l 940 61 l 1122 970 l 1193 970 l 999 0 l 12 0 z "},"Щ":{"ha":1289,"x_min":12,"x_max":1193,"o":"m 12 0 l 206 970 l 277 970 l 96 61 l 482 61 l 664 970 l 735 970 l 553 61 l 940 61 l 1122 970 l 1193 970 l 1011 61 l 1137 61 l 1073 -258 l 1002 -258 l 1053 0 l 12 0 z "},"Ъ":{"ha":1160,"x_min":85,"x_max":1107,"o":"m 564 970 l 382 63 l 720 63 q 970 273 929 63 q 770 495 1015 495 l 581 495 l 593 556 l 782 556 q 1052 280 1107 556 q 712 0 996 0 l 298 0 l 480 909 l 85 909 l 98 970 l 564 970 z "},"Ы":{"ha":1116,"x_min":12,"x_max":1105,"o":"m 277 970 l 96 63 l 434 63 q 691 273 650 63 q 484 495 736 495 l 295 495 l 307 556 l 496 556 q 766 280 821 556 q 426 0 709 0 l 12 0 l 206 970 l 277 970 m 840 0 l 1034 970 l 1105 970 l 911 0 l 840 0 z "},"Ь":{"ha":873,"x_min":12,"x_max":821,"o":"m 277 970 l 96 63 l 434 63 q 691 273 650 63 q 484 495 736 495 l 295 495 l 307 556 l 495 556 q 766 280 821 556 q 426 0 709 0 l 12 0 l 206 970 l 277 970 z "},"Э":{"ha":932,"x_min":-5,"x_max":964,"o":"m 9 102 q 271 54 125 54 q 787 461 686 54 l 130 461 l 142 522 l 800 522 q 443 916 863 916 q 162 868 297 916 l 176 936 q 455 977 309 977 q 868 498 964 977 q 258 -7 767 -7 q -5 34 113 -7 l 9 102 z "},"Ю":{"ha":1364,"x_min":12,"x_max":1396,"o":"m 12 0 l 206 970 l 277 970 l 187 522 l 523 522 q 1004 977 630 977 q 1299 490 1396 977 q 808 -7 1199 -7 q 510 461 427 -7 l 175 461 l 83 0 l 12 0 m 820 54 q 1220 488 1133 54 q 992 916 1305 916 q 586 488 671 916 q 820 54 499 54 z "},"Я":{"ha":831,"x_min":-79,"x_max":820,"o":"m 555 0 l 736 907 l 418 907 q 189 732 223 907 q 440 498 151 542 l 431 450 l 18 0 l -79 0 l 338 452 q 110 737 70 536 q 420 970 157 970 l 820 970 l 626 0 l 555 0 z "},"а":{"ha":764,"x_min":-22,"x_max":696,"o":"m 614 632 q 431 648 526 648 q 119 355 177 648 q 235 68 61 68 q 536 240 401 68 l 614 632 m 559 0 l 502 0 l 522 170 q 221 0 381 0 q 49 353 -22 0 q 450 712 121 712 q 696 683 594 712 l 559 0 z "},"б":{"ha":805,"x_min":-13,"x_max":819,"o":"m 704 353 q 315 -7 632 -7 q 59 353 -13 -7 l 103 573 q 545 970 182 970 q 819 1044 688 970 l 805 974 q 530 909 688 909 q 179 580 245 909 q 465 712 288 712 q 707 369 776 712 l 704 353 m 327 54 q 632 353 572 54 q 452 647 691 647 q 134 353 193 647 q 327 54 74 54 z "},"в":{"ha":757,"x_min":-30,"x_max":724,"o":"m 313 54 q 556 197 528 54 q 412 332 583 332 l 303 332 l 314 387 q 616 543 587 397 q 451 658 640 658 q 114 356 174 658 q 313 54 54 54 m 302 -7 q 43 356 -30 -7 q 468 719 115 719 q 688 541 724 719 q 508 370 665 423 q 633 199 659 334 q 302 -7 591 -7 z "},"г":{"ha":665,"x_min":-28,"x_max":643,"o":"m 480 34 q 247 0 355 0 q 12 203 -28 0 q 298 380 47 380 l 366 380 q 531 509 505 380 q 355 651 559 651 q 121 610 248 651 l 134 678 q 367 712 260 712 q 602 509 643 712 q 340 319 564 319 l 273 319 q 83 203 106 319 q 259 61 55 61 q 494 102 367 61 l 480 34 z "},"д":{"ha":773,"x_min":-23,"x_max":803,"o":"m 617 397 q 640 570 633 476 q 424 658 576 658 q 120 366 178 658 q 304 54 58 54 q 617 397 549 54 m 689 400 q 291 -7 608 -7 q 52 366 -23 -7 q 429 712 121 712 q 643 644 569 712 q 361 909 627 909 l 214 909 l 227 970 l 374 970 q 689 400 803 970 z "},"е":{"ha":729,"x_min":-22,"x_max":701,"o":"m 441 712 q 663 526 701 712 q 374 334 625 334 l 116 334 q 317 61 62 61 q 572 156 458 61 l 558 88 q 304 0 446 0 q 51 364 -22 0 q 441 712 121 712 m 129 397 l 385 397 q 593 528 566 397 q 429 652 617 652 q 129 397 192 652 z "},"ж":{"ha":1340,"x_min":-24,"x_max":1314,"o":"m 926 450 q 1203 712 1007 712 q 1314 692 1257 712 l 1302 631 q 1184 651 1245 651 q 964 349 1025 651 q 1059 61 907 61 q 1199 115 1127 61 l 1187 54 q 1040 0 1115 0 q 900 349 830 0 q 908 388 904 369 l 675 340 l 607 0 l 536 0 l 601 324 l 370 277 q 87 0 288 0 q -24 20 33 0 l -12 81 q 106 61 45 61 q 326 363 265 61 q 231 651 383 651 q 91 597 163 651 l 103 658 q 250 712 175 712 q 390 363 460 712 l 385 338 l 613 385 l 678 712 l 749 712 l 687 401 l 926 450 z "},"з":{"ha":627,"x_min":-22,"x_max":607,"o":"m 107 678 q 339 719 237 719 q 568 521 607 719 q 442 363 547 416 q 505 210 526 312 q 194 -7 462 -7 q -22 34 92 -7 l -8 102 q 206 54 104 54 q 434 210 403 54 q 301 332 458 332 l 106 332 l 118 393 l 311 393 q 496 521 471 393 q 327 658 524 658 q 94 610 225 658 l 107 678 z "},"и":{"ha":790,"x_min":12,"x_max":728,"o":"m 728 712 l 585 0 l 514 0 l 557 213 q 197 0 389 0 q 54 207 12 0 l 155 712 l 226 712 l 125 207 q 214 64 96 64 q 572 290 403 64 l 656 712 l 728 712 z "},"й":{"ha":790,"x_min":12,"x_max":728,"o":"m 728 712 l 585 0 l 514 0 l 557 213 q 197 0 389 0 q 54 207 12 0 l 155 712 l 226 712 l 125 207 q 214 64 96 64 q 572 290 403 64 l 656 712 l 728 712 m 320 970 l 378 970 q 469 848 353 848 q 608 970 584 848 l 666 970 q 458 793 631 793 q 320 970 285 793 z "},"к":{"ha":671,"x_min":5,"x_max":700,"o":"m 219 712 l 77 0 l 5 0 l 148 712 l 219 712 m 470 0 l 404 167 q 214 355 341 355 l 222 397 q 432 555 351 397 q 648 712 513 712 l 700 712 l 688 651 l 634 651 q 488 528 554 651 q 332 378 422 405 q 477 179 401 357 l 554 0 l 470 0 z "},"л":{"ha":764,"x_min":-96,"x_max":709,"o":"m -84 61 q 121 285 77 61 l 159 471 q 451 712 207 712 l 709 712 l 566 0 l 495 0 l 625 651 l 439 651 q 229 468 266 651 l 193 285 q -96 0 136 0 l -84 61 z "},"м":{"ha":963,"x_min":5,"x_max":907,"o":"m 5 0 l 148 712 l 219 712 l 404 71 l 836 712 l 907 712 l 765 0 l 701 0 l 818 585 l 417 0 l 359 0 l 187 585 l 70 0 l 5 0 z "},"н":{"ha":763,"x_min":5,"x_max":707,"o":"m 5 0 l 148 712 l 219 712 l 155 393 l 572 393 l 636 712 l 707 712 l 565 0 l 494 0 l 560 332 l 143 332 l 77 0 l 5 0 z "},"о":{"ha":787,"x_min":-22,"x_max":760,"o":"m 121 359 q 308 54 60 54 q 616 359 555 54 q 429 658 676 658 q 121 359 181 658 m 50 356 q 441 719 122 719 q 687 356 760 719 q 296 -6 614 -6 q 50 356 -22 -6 z "},"п":{"ha":790,"x_min":12,"x_max":728,"o":"m 12 0 l 155 712 l 212 712 l 183 499 q 529 712 351 712 q 686 505 728 712 l 585 0 l 514 0 l 615 505 q 513 648 644 648 q 168 422 337 648 l 83 0 l 12 0 z "},"р":{"ha":765,"x_min":-39,"x_max":736,"o":"m 100 83 q 300 64 212 64 q 602 382 538 64 q 486 644 654 644 q 178 472 341 644 l 100 83 m 155 711 l 212 711 l 192 543 q 507 712 361 712 q 669 377 736 712 q 294 0 594 0 q 87 16 182 0 l 32 -258 l -39 -258 l 155 711 z "},"с":{"ha":682,"x_min":-22,"x_max":639,"o":"m 518 88 q 277 0 412 0 q 51 363 -22 0 q 453 712 121 712 q 639 692 555 712 l 627 631 q 448 651 536 651 q 129 363 186 651 q 296 61 68 61 q 532 156 418 61 l 518 88 z "},"т":{"ha":1217,"x_min":12,"x_max":1155,"o":"m 12 0 l 155 712 l 212 712 l 184 500 q 490 712 322 712 q 646 506 687 712 q 957 712 790 712 q 1109 485 1155 712 l 1013 0 l 941 0 l 1038 485 q 943 648 1071 648 q 635 420 768 648 l 551 0 l 480 0 l 577 485 q 477 648 610 648 q 168 420 310 648 l 83 0 l 12 0 z "},"у":{"ha":720,"x_min":-1,"x_max":749,"o":"m 63 712 l 145 712 l 281 69 l 670 712 l 749 712 l 293 -21 q 8 -263 175 -215 l -1 -206 q 227 -11 131 -161 l 63 712 z "},"ф":{"ha":1242,"x_min":-22,"x_max":1213,"o":"m 614 629 q 414 648 503 648 q 113 330 177 648 q 229 68 61 68 q 537 240 374 68 l 614 629 m 654 472 l 577 83 q 777 64 689 64 q 1078 382 1015 64 q 963 644 1131 644 q 654 472 818 644 m 669 543 q 984 712 838 712 q 1146 377 1213 712 q 770 0 1071 0 q 564 16 659 0 l 509 -258 l 437 -258 l 523 170 q 208 0 354 0 q 45 335 -22 0 q 421 712 121 712 q 628 696 533 712 l 683 970 l 754 970 l 669 543 z "},"х":{"ha":671,"x_min":-79,"x_max":701,"o":"m 269 356 l 63 712 l 144 712 l 318 411 l 612 712 l 701 712 l 353 356 l 558 0 l 477 0 l 303 301 l 9 0 l -79 0 l 269 356 z "},"ц":{"ha":841,"x_min":12,"x_max":728,"o":"m 595 47 l 723 61 q 591 -258 691 -98 l 520 -258 q 642 14 614 -129 l 528 0 l 557 213 q 197 0 389 0 q 54 207 12 0 l 155 712 l 226 712 l 125 207 q 214 64 96 64 q 572 290 403 64 l 656 712 l 728 712 l 595 47 z "},"ч":{"ha":772,"x_min":29,"x_max":716,"o":"m 716 712 l 574 0 l 503 0 l 559 281 q 307 203 444 203 q 85 482 29 203 l 131 712 l 202 712 l 156 480 q 323 267 113 267 q 574 357 471 267 l 645 712 l 716 712 z "},"ш":{"ha":1217,"x_min":12,"x_max":1155,"o":"m 1155 712 l 1013 0 l 955 0 l 983 212 q 677 0 845 0 q 522 206 480 0 q 210 0 377 0 q 58 227 12 0 l 155 712 l 226 712 l 129 227 q 224 64 96 64 q 532 292 399 64 l 616 712 l 687 712 l 590 227 q 690 64 557 64 q 1000 292 857 64 l 1084 712 l 1155 712 z "},"щ":{"ha":1268,"x_min":12,"x_max":1155,"o":"m 1022 47 l 1150 61 q 1019 -258 1118 -98 l 947 -258 q 1069 14 1041 -129 l 955 0 l 983 212 q 677 0 845 0 q 522 206 480 0 q 210 0 377 0 q 58 227 12 0 l 155 712 l 226 712 l 129 227 q 224 64 96 64 q 532 292 399 64 l 616 712 l 687 712 l 590 227 q 690 64 557 64 q 1000 292 857 64 l 1084 712 l 1155 712 l 1022 47 z "},"ъ":{"ha":917,"x_min":34,"x_max":836,"o":"m 378 712 l 279 216 q 464 63 248 63 q 724 218 693 63 q 580 352 751 352 l 398 352 l 410 413 l 592 413 q 795 212 836 413 q 449 0 753 0 q 208 216 164 0 l 294 651 l 34 651 l 46 712 l 378 712 z "},"ы":{"ha":983,"x_min":5,"x_max":928,"o":"m 701 0 l 843 712 l 928 712 l 785 0 l 701 0 m 219 712 l 120 216 q 319 63 90 63 q 565 218 534 63 q 421 352 592 352 l 239 352 l 252 413 l 433 413 q 637 212 677 413 q 304 0 594 0 q 49 216 5 0 l 148 712 l 219 712 z "},"ь":{"ha":792,"x_min":5,"x_max":677,"o":"m 219 712 l 120 216 q 319 63 90 63 q 565 218 534 63 q 421 352 592 352 l 239 352 l 252 413 l 433 413 q 637 212 677 413 q 304 0 594 0 q 49 216 5 0 l 148 712 l 219 712 z "},"э":{"ha":658,"x_min":-24,"x_max":636,"o":"m -12 81 q 174 61 72 61 q 486 333 417 61 l 81 333 l 94 394 l 498 394 q 285 651 539 651 q 98 631 190 651 l 110 692 q 304 712 202 712 q 568 370 636 712 q 161 0 494 0 q -24 20 60 0 l -12 81 z "},"ю":{"ha":1154,"x_min":5,"x_max":1134,"o":"m 691 54 q 984 359 923 54 q 812 658 1044 658 q 513 359 572 658 q 691 54 452 54 m 5 0 l 148 712 l 218 712 l 155 393 l 444 393 q 824 719 527 719 q 1061 355 1134 719 q 679 -7 989 -7 q 431 332 374 -7 l 142 332 l 76 0 l 5 0 z "},"я":{"ha":722,"x_min":-79,"x_max":667,"o":"m 453 0 l 583 649 l 326 649 q 161 528 185 649 q 333 369 137 406 l 321 307 l 15 0 l -79 0 l 247 323 q 93 552 57 370 q 341 712 125 712 l 667 712 l 524 0 l 453 0 z "},"ё":{"ha":729,"x_min":-22,"x_max":701,"o":"m 441 712 q 663 526 701 712 q 374 334 625 334 l 116 334 q 317 61 62 61 q 572 156 458 61 l 558 88 q 304 0 446 0 q 51 364 -22 0 q 441 712 121 712 m 129 397 l 385 397 q 593 528 566 397 q 429 652 617 652 q 129 397 192 652 m 621 956 l 603 868 l 511 868 l 529 956 l 621 956 m 404 956 l 386 868 l 294 868 l 312 956 l 404 956 z "},";":{"ha":370,"x_min":-56,"x_max":307,"o":"m 176 125 l 16 -170 l -56 -170 l 105 125 l 176 125 m 307 712 l 290 627 l 199 627 l 216 712 l 307 712 z "},"΄":{"ha":355,"x_min":133,"x_max":385,"o":"m 277 970 l 385 970 l 190 808 l 133 808 l 277 970 z "},"΅":{"ha":580,"x_min":145,"x_max":607,"o":"m 607 956 l 589 868 l 498 868 l 515 956 l 607 956 m 254 956 l 237 868 l 145 868 l 163 956 l 254 956 m 378 970 l 486 970 l 292 808 l 235 808 l 378 970 z "},"Ά":{"ha":1012,"x_min":-73,"x_max":892,"o":"m 277 970 l 385 970 l 190 808 l 133 808 l 277 970 z "},"·":{"ha":241,"x_min":104,"x_max":213,"o":"m 213 712 l 196 627 l 104 627 l 121 712 l 213 712 z "},"Έ":{"ha":964,"x_min":31,"x_max":960,"o":"m 175 970 l 283 970 l 88 808 l 31 808 l 175 970 m 960 970 l 948 909 l 382 909 l 305 522 l 848 522 l 836 461 l 293 461 l 213 61 l 788 61 l 776 0 l 130 0 l 323 970 l 960 970 z "},"Ή":{"ha":1138,"x_min":31,"x_max":1127,"o":"m 175 970 l 283 970 l 88 808 l 31 808 l 175 970 m 130 0 l 323 970 l 395 970 l 305 522 l 966 522 l 1056 970 l 1127 970 l 933 0 l 862 0 l 954 461 l 293 461 l 201 0 l 130 0 z "},"Ί":{"ha":473,"x_min":31,"x_max":429,"o":"m 175 970 l 283 970 l 88 808 l 31 808 l 175 970 m 429 970 l 235 0 l 163 0 l 357 970 l 429 970 z "},"Ό":{"ha":1131,"x_min":-7,"x_max":1156,"o":"m 175 970 l 283 970 l 88 808 l 31 808 l 175 970 m 170 488 q 492 54 83 54 q 980 488 893 54 q 664 916 1065 916 q 170 488 255 916 m 91 484 q 676 977 189 977 q 1057 484 1156 977 q 479 -7 959 -7 q 91 484 -7 -7 z "},"Ύ":{"ha":1033,"x_min":31,"x_max":1107,"o":"m 175 970 l 283 970 l 88 808 l 31 808 l 175 970 m 307 970 l 391 970 l 593 407 l 1029 970 l 1107 970 l 617 339 l 549 0 l 478 0 l 546 339 l 307 970 z "},"Ώ":{"ha":1107,"x_min":11,"x_max":1126,"o":"m 175 970 l 283 970 l 88 808 l 31 808 l 175 970 m 11 0 l 23 61 l 264 61 q 112 556 55 271 q 662 983 197 983 q 1041 556 1126 983 q 691 61 984 271 l 932 61 l 920 0 l 581 0 l 593 61 q 970 556 916 285 q 650 922 1043 922 q 183 556 256 922 q 362 61 129 285 l 350 0 l 11 0 z "},"ΐ":{"ha":315,"x_min":26,"x_max":515,"o":"m 239 712 l 97 0 l 26 0 l 168 712 l 239 712 m 515 956 l 498 868 l 406 868 l 424 956 l 515 956 m 163 956 l 145 868 l 54 868 l 71 956 l 163 956 m 287 970 l 395 970 l 200 808 l 143 808 l 287 970 z "},"Α":{"ha":1012,"x_min":-73,"x_max":892,"o":"m 8 0 l -73 0 l 560 970 l 645 970 l 892 0 l 812 0 l 733 326 l 298 326 l 332 387 l 719 387 l 592 914 l 8 0 z "},"Β":{"ha":902,"x_min":12,"x_max":897,"o":"m 12 0 l 206 970 l 620 970 q 851 744 897 970 q 604 507 819 578 q 771 280 809 471 q 412 0 715 0 l 12 0 m 416 61 q 694 278 651 61 q 439 470 733 470 l 385 470 l 395 518 q 778 739 740 549 q 603 909 812 909 l 265 909 l 96 61 l 416 61 z "},"Γ":{"ha":687,"x_min":12,"x_max":785,"o":"m 12 0 l 206 970 l 785 970 l 772 909 l 265 909 l 83 0 l 12 0 z "},"Ε":{"ha":846,"x_min":12,"x_max":843,"o":"m 843 970 l 831 909 l 265 909 l 188 522 l 730 522 l 718 461 l 176 461 l 96 61 l 671 61 l 659 0 l 12 0 l 206 970 l 843 970 z "},"Ζ":{"ha":861,"x_min":-5,"x_max":867,"o":"m 867 970 l 855 909 l 98 61 l 672 61 l 660 0 l -5 0 l 6 54 l 777 909 l 191 909 l 203 970 l 867 970 z "},"Η":{"ha":1021,"x_min":12,"x_max":1010,"o":"m 12 0 l 206 970 l 277 970 l 188 522 l 849 522 l 939 970 l 1010 970 l 816 0 l 745 0 l 837 461 l 176 461 l 83 0 l 12 0 z "},"Θ":{"ha":1116,"x_min":-23,"x_max":1140,"o":"m 338 531 l 795 531 l 782 463 l 324 463 l 338 531 m 154 488 q 476 54 67 54 q 964 488 878 54 q 648 916 1050 916 q 154 488 239 916 m 75 484 q 661 977 174 977 q 1042 484 1140 977 q 464 -7 943 -7 q 75 484 -23 -7 z "},"Ι":{"ha":356,"x_min":46,"x_max":311,"o":"m 311 970 l 117 0 l 46 0 l 240 970 l 311 970 z "},"Κ":{"ha":899,"x_min":12,"x_max":943,"o":"m 277 970 l 83 0 l 12 0 l 206 970 l 277 970 m 943 970 l 378 494 l 785 0 l 686 0 l 304 473 l 313 522 l 838 970 l 943 970 z "},"Λ":{"ha":1012,"x_min":-73,"x_max":892,"o":"m 8 0 l -73 0 l 560 970 l 645 970 l 892 0 l 812 0 l 592 914 l 8 0 z "},"Μ":{"ha":1200,"x_min":12,"x_max":1190,"o":"m 12 0 l 206 970 l 277 970 l 538 83 l 1125 970 l 1190 970 l 996 0 l 931 0 l 1099 839 l 546 0 l 488 0 l 245 846 l 77 0 l 12 0 z "},"Ν":{"ha":1021,"x_min":12,"x_max":1010,"o":"m 12 0 l 206 970 l 284 970 l 772 104 l 945 970 l 1010 970 l 816 0 l 758 0 l 254 890 l 77 0 l 12 0 z "},"Ξ":{"ha":811,"x_min":-28,"x_max":841,"o":"m -15 68 l 661 68 l 647 0 l -28 0 l -15 68 m 165 970 l 841 970 l 827 902 l 152 902 l 165 970 m 119 531 l 713 531 l 699 463 l 105 463 l 119 531 z "},"Ο":{"ha":1116,"x_min":-23,"x_max":1140,"o":"m 154 488 q 476 54 67 54 q 964 488 878 54 q 648 916 1050 916 q 154 488 239 916 m 75 484 q 661 977 174 977 q 1042 484 1140 977 q 464 -7 943 -7 q 75 484 -23 -7 z "},"Π":{"ha":966,"x_min":12,"x_max":956,"o":"m 12 0 l 206 970 l 956 970 l 762 0 l 690 0 l 872 909 l 265 909 l 83 0 l 12 0 z "},"Ρ":{"ha":857,"x_min":12,"x_max":897,"o":"m 12 0 l 206 970 l 613 970 q 843 703 897 970 q 323 369 791 441 l 323 434 q 763 698 721 488 q 589 907 804 907 l 264 907 l 83 0 l 12 0 z "},"Σ":{"ha":800,"x_min":-28,"x_max":830,"o":"m 165 970 l 830 970 l 818 909 l 228 909 l 494 509 l 79 61 l 648 61 l 636 0 l -28 0 l -16 61 l 409 509 l 153 909 l 165 970 z "},"Τ":{"ha":743,"x_min":92,"x_max":833,"o":"m 833 970 l 821 909 l 489 909 l 307 0 l 236 0 l 418 909 l 92 909 l 104 970 l 833 970 z "},"Υ":{"ha":848,"x_min":121,"x_max":922,"o":"m 121 970 l 206 970 l 408 407 l 844 970 l 922 970 l 432 339 l 364 0 l 293 0 l 361 339 l 121 970 z "},"Φ":{"ha":1115,"x_min":-8,"x_max":1125,"o":"m 441 77 q 70 490 -8 102 q 604 893 145 868 l 620 970 l 690 970 l 675 894 q 1049 490 1125 871 q 511 76 970 98 l 496 0 l 426 0 l 441 77 m 454 138 l 592 831 q 146 488 210 807 q 454 138 81 163 m 663 832 l 524 138 q 971 488 905 161 q 663 832 1036 810 z "},"Χ":{"ha":895,"x_min":-73,"x_max":969,"o":"m 406 485 l 121 970 l 206 970 l 459 538 l 884 970 l 969 970 l 491 485 l 775 0 l 690 0 l 437 431 l 12 0 l -73 0 l 406 485 z "},"Ψ":{"ha":1119,"x_min":76,"x_max":1108,"o":"m 501 367 l 622 970 l 692 970 l 572 367 q 977 670 919 380 l 1037 970 l 1108 970 l 1048 670 q 559 306 978 319 l 498 0 l 428 0 l 489 306 q 146 670 76 319 l 206 970 l 277 970 l 217 670 q 501 367 159 380 z "},"Ϊ":{"ha":356,"x_min":46,"x_max":468,"o":"m 311 970 l 117 0 l 46 0 l 240 970 l 311 970 m 468 1214 l 450 1126 l 359 1126 l 376 1214 l 468 1214 m 251 1214 l 233 1126 l 142 1126 l 159 1214 l 251 1214 z "},"Ϋ":{"ha":848,"x_min":121,"x_max":922,"o":"m 121 970 l 206 970 l 408 407 l 844 970 l 922 970 l 432 339 l 364 0 l 293 0 l 361 339 l 121 970 m 714 1214 l 696 1126 l 605 1126 l 623 1214 l 714 1214 m 497 1214 l 479 1126 l 388 1126 l 406 1214 l 497 1214 z "},"ά":{"ha":935,"x_min":-27,"x_max":913,"o":"m 43 356 q 412 712 114 712 q 678 424 637 712 l 841 712 l 913 712 l 701 354 l 762 0 l 687 0 l 647 275 q 270 0 471 0 q 43 356 -27 0 m 115 359 q 282 61 55 61 q 630 359 448 61 q 400 651 573 651 q 115 359 173 651 m 590 970 l 698 970 l 503 808 l 446 808 l 590 970 z "},"έ":{"ha":627,"x_min":-30,"x_max":600,"o":"m 587 617 q 378 658 493 658 q 155 528 181 658 q 350 400 130 400 l 482 400 l 470 339 l 336 339 q 82 197 111 339 q 257 54 54 54 q 482 95 372 54 l 469 27 q 245 -7 360 -7 q 11 197 -30 -7 q 193 370 38 332 q 84 528 60 410 q 397 719 122 719 q 600 685 505 719 l 587 617 m 450 970 l 557 970 l 363 808 l 306 808 l 450 970 z "},"ή":{"ha":804,"x_min":12,"x_max":728,"o":"m 12 0 l 155 712 l 212 712 l 183 499 q 529 712 351 712 q 686 505 728 712 l 534 -258 l 463 -258 l 615 505 q 513 648 644 648 q 168 422 337 648 l 83 0 l 12 0 m 538 970 l 646 970 l 451 808 l 394 808 l 538 970 z "},"ί":{"ha":315,"x_min":26,"x_max":401,"o":"m 239 712 l 97 0 l 26 0 l 168 712 l 239 712 m 294 970 l 401 970 l 207 808 l 150 808 l 294 970 z "},"ΰ":{"ha":821,"x_min":4,"x_max":765,"o":"m 65 297 l 148 712 l 219 712 l 136 297 q 325 54 87 54 q 611 297 562 54 l 694 712 l 765 712 l 682 297 q 313 -7 621 -7 q 65 297 4 -7 m 728 956 l 710 868 l 618 868 l 636 956 l 728 956 m 375 956 l 357 868 l 266 868 l 283 956 l 375 956 m 499 970 l 607 970 l 412 808 l 355 808 l 499 970 z "},"α":{"ha":935,"x_min":-27,"x_max":913,"o":"m 43 356 q 412 712 114 712 q 678 424 637 712 l 841 712 l 913 712 l 701 354 l 762 0 l 687 0 l 647 275 q 270 0 471 0 q 43 356 -27 0 m 115 359 q 282 61 55 61 q 630 359 448 61 q 400 651 573 651 q 115 359 173 651 z "},"β":{"ha":811,"x_min":-43,"x_max":812,"o":"m -43 -245 l 124 591 q 534 970 199 970 q 767 742 812 970 q 553 522 732 564 q 716 258 764 496 q 383 -1 664 -1 q 193 39 291 -1 l 205 100 q 397 60 304 60 q 645 258 605 60 q 385 488 690 488 l 393 528 q 705 742 670 564 q 517 909 739 909 q 195 589 258 909 l 28 -245 l -43 -245 z "},"γ":{"ha":732,"x_min":70,"x_max":748,"o":"m 70 712 l 148 712 l 281 83 l 670 712 l 748 712 l 296 0 l 245 -258 l 174 -258 l 225 0 l 70 712 z "},"δ":{"ha":814,"x_min":-30,"x_max":781,"o":"m 723 366 q 304 -7 648 -7 q 43 359 -30 -7 q 447 705 113 705 q 566 685 505 705 q 232 916 419 829 l 243 970 l 775 970 l 764 916 l 359 916 q 723 366 781 702 m 651 363 q 436 651 709 651 q 112 359 170 651 q 317 54 51 54 q 651 363 589 54 z "},"ε":{"ha":627,"x_min":-30,"x_max":600,"o":"m 587 617 q 378 658 493 658 q 155 528 181 658 q 350 400 130 400 l 482 400 l 470 339 l 336 339 q 82 197 111 339 q 257 54 54 54 q 482 95 372 54 l 469 27 q 245 -7 360 -7 q 11 197 -30 -7 q 193 370 38 332 q 84 528 60 410 q 397 719 122 719 q 600 685 505 719 l 587 617 z "},"ζ":{"ha":680,"x_min":-28,"x_max":744,"o":"m 303 970 l 744 970 l 732 909 q 96 286 154 574 q 254 61 52 61 l 390 61 q 533 -50 555 61 q 273 -271 505 -189 l 256 -218 q 470 -51 450 -151 q 381 0 480 0 l 245 0 q 28 283 -28 0 q 629 909 89 587 l 291 909 l 303 970 z "},"η":{"ha":790,"x_min":12,"x_max":728,"o":"m 12 0 l 155 712 l 212 712 l 183 499 q 529 712 351 712 q 686 505 728 712 l 534 -258 l 463 -258 l 615 505 q 513 648 644 648 q 168 422 337 648 l 83 0 l 12 0 z "},"θ":{"ha":844,"x_min":-16,"x_max":862,"o":"m 158 475 q 340 54 78 54 q 684 475 595 54 l 158 475 m 695 536 q 513 916 757 916 q 171 536 262 916 l 695 536 m 82 484 q 525 977 180 977 q 764 484 862 977 q 328 -7 665 -7 q 82 484 -16 -7 z "},"ι":{"ha":315,"x_min":26,"x_max":239,"o":"m 239 712 l 97 0 l 26 0 l 168 712 l 239 712 z "},"κ":{"ha":746,"x_min":5,"x_max":752,"o":"m 752 712 l 333 375 l 626 0 l 526 0 l 252 365 l 258 400 l 648 712 l 752 712 m 226 712 l 83 0 l 5 0 l 148 712 l 226 712 z "},"λ":{"ha":740,"x_min":-69,"x_max":616,"o":"m 380 713 q 234 918 349 873 l 267 975 q 454 733 414 927 l 616 0 l 538 0 l 403 641 l 13 0 l -69 0 l 380 713 z "},"ν":{"ha":699,"x_min":53,"x_max":738,"o":"m 53 712 l 134 712 l 264 62 l 656 712 l 738 712 l 292 0 l 210 0 l 53 712 z "},"ξ":{"ha":690,"x_min":-12,"x_max":684,"o":"m 519 970 l 684 970 l 672 909 l 507 909 q 272 757 302 909 q 447 605 241 605 l 604 605 l 592 544 l 441 544 q 113 286 165 544 q 271 61 68 61 l 420 61 q 549 -56 572 61 q 290 -271 522 -189 l 272 -225 q 486 -58 468 -144 q 412 0 497 0 l 262 0 q 45 283 -12 0 q 286 575 90 508 q 201 761 172 612 q 519 970 243 970 z "},"ο":{"ha":814,"x_min":-27,"x_max":792,"o":"m 115 359 q 323 61 55 61 q 650 359 591 61 q 441 651 709 651 q 115 359 173 651 m 43 356 q 453 712 114 712 q 721 356 792 712 q 311 1 650 1 q 43 356 -27 1 z "},"ρ":{"ha":822,"x_min":-56,"x_max":800,"o":"m 89 111 q 313 68 208 68 q 663 373 602 68 q 450 648 718 648 q 141 373 196 648 l 89 111 m 70 373 q 465 712 138 712 q 732 373 800 712 q 300 0 658 0 q 75 41 201 0 l 15 -258 l -56 -258 l 70 373 z "},"ς":{"ha":673,"x_min":1,"x_max":659,"o":"m 647 617 q 474 651 578 651 q 117 387 170 651 q 262 145 78 195 l 363 115 q 529 -71 556 64 q 193 -258 492 -258 l 205 -197 q 458 -74 434 -197 q 334 55 477 18 l 208 96 q 48 385 1 150 q 486 712 114 712 q 659 678 590 712 l 647 617 z "},"σ":{"ha":866,"x_min":-27,"x_max":878,"o":"m 115 359 q 323 61 55 61 q 650 359 591 61 q 448 651 709 651 q 115 359 173 651 m 43 356 q 460 712 114 712 l 878 712 l 866 651 l 655 651 q 721 356 762 564 q 311 1 650 1 q 43 356 -27 1 z "},"τ":{"ha":522,"x_min":34,"x_max":517,"o":"m 46 712 l 517 712 l 505 651 l 291 651 l 211 251 q 323 60 173 60 q 339 61 331 60 l 327 0 q 283 -3 304 -3 q 140 251 89 -3 l 220 651 l 34 651 l 46 712 z "},"υ":{"ha":821,"x_min":4,"x_max":765,"o":"m 65 297 l 148 712 l 219 712 l 136 297 q 325 54 87 54 q 611 297 562 54 l 694 712 l 765 712 l 682 297 q 313 -7 621 -7 q 65 297 4 -7 z "},"φ":{"ha":1021,"x_min":-28,"x_max":999,"o":"m 236 712 l 321 712 q 117 373 155 559 q 381 47 55 61 l 460 444 q 734 712 514 712 q 931 373 999 712 q 440 -14 857 0 l 391 -258 l 320 -258 l 369 -14 q 46 373 -28 0 q 236 712 83 559 m 452 47 q 860 373 798 61 q 724 651 916 651 q 532 444 573 651 l 452 47 z "},"χ":{"ha":712,"x_min":-121,"x_max":731,"o":"m 263 227 l 73 712 l 158 712 l 319 299 l 646 712 l 731 712 l 348 227 l 537 -258 l 452 -258 l 291 155 l -36 -258 l -121 -258 l 263 227 z "},"ψ":{"ha":1092,"x_min":7,"x_max":1036,"o":"m 425 55 l 556 712 l 628 712 l 497 55 q 896 365 837 70 l 965 712 l 1036 712 l 967 365 q 485 -6 896 9 l 434 -258 l 362 -258 l 413 -6 q 79 365 7 9 l 148 712 l 219 712 l 150 365 q 425 55 91 70 z "},"ω":{"ha":1136,"x_min":-15,"x_max":1070,"o":"m 216 712 l 287 712 q 131 373 168 559 q 241 61 68 61 q 548 559 448 61 l 619 559 q 726 61 519 61 q 962 373 899 61 q 941 712 999 559 l 1013 712 q 1033 373 1070 559 q 714 0 958 0 q 523 264 507 0 q 229 0 436 0 q 60 373 -15 0 q 216 712 97 559 z "},"ϊ":{"ha":315,"x_min":26,"x_max":407,"o":"m 239 712 l 97 0 l 26 0 l 168 712 l 239 712 m 407 956 l 389 868 l 298 868 l 315 956 l 407 956 m 190 956 l 172 868 l 81 868 l 98 956 l 190 956 z "},"ϋ":{"ha":821,"x_min":4,"x_max":765,"o":"m 65 297 l 148 712 l 219 712 l 136 297 q 325 54 87 54 q 611 297 562 54 l 694 712 l 765 712 l 682 297 q 313 -7 621 -7 q 65 297 4 -7 m 660 956 l 642 868 l 551 868 l 568 956 l 660 956 m 443 956 l 425 868 l 334 868 l 351 956 l 443 956 z "},"ό":{"ha":814,"x_min":-27,"x_max":792,"o":"m 115 359 q 323 61 55 61 q 650 359 591 61 q 441 651 709 651 q 115 359 173 651 m 43 356 q 453 712 114 712 q 721 356 792 712 q 311 1 650 1 q 43 356 -27 1 m 543 970 l 650 970 l 456 808 l 399 808 l 543 970 z "},"ύ":{"ha":821,"x_min":4,"x_max":765,"o":"m 65 297 l 148 712 l 219 712 l 136 297 q 325 54 87 54 q 611 297 562 54 l 694 712 l 765 712 l 682 297 q 313 -7 621 -7 q 65 297 4 -7 m 546 970 l 654 970 l 459 808 l 402 808 l 546 970 z "},"ώ":{"ha":1136,"x_min":-15,"x_max":1070,"o":"m 216 712 l 287 712 q 131 373 168 559 q 241 61 68 61 q 548 559 448 61 l 619 559 q 726 61 519 61 q 962 373 899 61 q 941 712 999 559 l 1013 712 q 1033 373 1070 559 q 714 0 958 0 q 523 264 507 0 q 229 0 436 0 q 60 373 -15 0 q 216 712 97 559 m 704 970 l 812 970 l 617 808 l 560 808 l 704 970 z "},"":{"ha":1104,"x_min":-114,"x_max":1066,"o":"m 631 712 l 1035 712 l 892 0 l 821 0 l 951 651 l 618 651 l 499 54 q 333 -250 456 -161 l 291 -205 q 427 54 387 -148 l 547 651 l 214 651 l 94 54 q -72 -250 51 -161 l -114 -205 q 23 54 -18 -148 l 163 753 q 439 1012 214 1012 q 562 985 507 1012 l 550 924 q 427 951 498 951 q 235 759 273 951 l 226 712 l 559 712 l 568 760 q 886 1019 621 1019 q 1066 971 987 1019 l 1054 910 q 873 958 979 958 q 641 766 680 958 l 631 712 z "},"":{"ha":1110,"x_min":-114,"x_max":1099,"o":"m 163 753 q 439 1012 214 1012 q 562 985 507 1012 l 550 924 q 427 951 498 951 q 235 759 273 951 l 226 712 l 559 712 l 568 760 q 899 1019 620 1019 q 1099 971 1014 1019 l 905 0 l 834 0 l 1021 935 q 886 958 972 958 q 640 766 679 958 l 630 712 l 844 712 l 831 651 l 618 651 l 499 54 q 333 -250 456 -161 l 291 -205 q 427 54 387 -148 l 547 651 l 214 651 l 94 54 q -72 -250 51 -161 l -114 -205 q 23 54 -18 -148 l 163 753 z "},"":{"ha":877,"x_min":-114,"x_max":1059,"o":"m 161 747 q 438 1005 213 1005 q 561 978 505 1005 l 549 917 q 425 944 497 944 q 233 752 272 944 l 226 712 l 559 712 l 567 753 q 905 1012 619 1012 q 1059 985 993 1012 l 1046 924 q 892 951 985 951 q 638 752 678 951 l 631 712 l 899 712 l 886 651 l 618 651 l 499 54 q 333 -250 456 -161 l 291 -205 q 427 54 387 -148 l 547 651 l 214 651 l 94 54 q -72 -250 51 -161 l -114 -205 q 23 54 -18 -148 l 161 747 z "},"":{"ha":692,"x_min":-114,"x_max":661,"o":"m 492 54 q 326 -250 448 -161 l 283 -205 q 420 54 380 -148 l 540 651 l 214 651 l 94 54 q -72 -250 51 -161 l -114 -205 q 23 54 -18 -148 l 164 760 q 481 1019 216 1019 q 661 971 583 1019 l 649 910 q 469 958 574 958 q 236 766 275 958 l 226 712 l 623 712 l 492 54 z "},"":{"ha":1097,"x_min":-114,"x_max":1066,"o":"m 897 54 q 730 -250 853 -161 l 688 -205 q 825 54 785 -148 l 945 651 l 618 651 l 499 54 q 333 -250 456 -161 l 291 -205 q 427 54 387 -148 l 547 651 l 214 651 l 94 54 q -72 -250 51 -161 l -114 -205 q 23 54 -18 -148 l 163 753 q 439 1012 214 1012 q 562 985 507 1012 l 550 924 q 427 951 498 951 q 235 759 273 951 l 226 712 l 559 712 l 568 760 q 886 1019 621 1019 q 1066 971 987 1019 l 1054 910 q 873 958 979 958 q 641 766 680 958 l 631 712 l 1028 712 l 897 54 z "},"":{"ha":1183,"x_min":-114,"x_max":1154,"o":"m 610 543 q 925 712 779 712 q 1087 377 1154 712 q 711 0 1012 0 q 435 29 558 0 l 616 935 q 482 958 568 958 q 236 766 275 958 l 226 712 l 439 712 l 427 651 l 214 651 l 94 54 q -72 -250 51 -161 l -114 -205 q 23 54 -18 -148 l 164 760 q 495 1019 216 1019 q 695 971 610 1019 l 610 543 m 517 83 q 718 64 629 64 q 1019 382 955 64 q 904 644 1072 644 q 595 472 759 644 l 517 83 z "},"":{"ha":1587,"x_min":-114,"x_max":1558,"o":"m 163 753 q 439 1012 214 1012 q 562 985 507 1012 l 550 924 q 427 951 498 951 q 235 759 273 951 l 226 712 l 559 712 l 568 760 q 899 1019 620 1019 q 1099 971 1014 1019 l 1014 543 q 1329 712 1183 712 q 1491 377 1558 712 q 1116 0 1416 0 q 840 29 962 0 l 1021 935 q 886 958 972 958 q 640 766 679 958 l 630 712 l 844 712 l 831 651 l 618 651 l 499 54 q 333 -250 456 -161 l 291 -205 q 427 54 387 -148 l 547 651 l 214 651 l 94 54 q -72 -250 51 -161 l -114 -205 q 23 54 -18 -148 l 163 753 m 922 83 q 1122 64 1034 64 q 1423 382 1359 64 q 1308 644 1476 644 q 1000 472 1163 644 l 922 83 z "},"":{"ha":1208,"x_min":-114,"x_max":1145,"o":"m 601 499 q 947 712 768 712 q 1104 505 1145 712 l 1003 0 l 932 0 l 1033 505 q 930 648 1061 648 q 585 422 755 648 l 501 0 l 430 0 l 616 935 q 482 958 568 958 q 236 766 275 958 l 226 712 l 439 712 l 427 651 l 214 651 l 94 54 q -72 -250 51 -161 l -114 -205 q 23 54 -18 -148 l 164 760 q 495 1019 216 1019 q 695 971 610 1019 l 601 499 z "},"":{"ha":1612,"x_min":-114,"x_max":1550,"o":"m 163 753 q 439 1012 214 1012 q 562 985 507 1012 l 550 924 q 427 951 498 951 q 235 759 273 951 l 226 712 l 559 712 l 568 760 q 899 1019 620 1019 q 1099 971 1014 1019 l 1005 499 q 1351 712 1173 712 q 1508 505 1550 712 l 1407 0 l 1336 0 l 1437 505 q 1335 648 1466 648 q 989 422 1159 648 l 905 0 l 834 0 l 1021 935 q 886 958 972 958 q 640 766 679 958 l 630 712 l 844 712 l 831 651 l 618 651 l 499 54 q 333 -250 456 -161 l 291 -205 q 427 54 387 -148 l 547 651 l 214 651 l 94 54 q -72 -250 51 -161 l -114 -205 q 23 54 -18 -148 l 163 753 z "},"":{"ha":1178,"x_min":-114,"x_max":1156,"o":"m 605 521 q 958 712 774 712 q 1118 527 1156 712 q 831 280 1087 371 l 1031 0 l 943 0 l 764 268 l 772 311 q 1046 521 1019 386 q 930 651 1072 651 q 591 452 765 651 l 501 0 l 430 0 l 616 935 q 482 958 568 958 q 236 766 275 958 l 226 712 l 439 712 l 427 651 l 214 651 l 94 54 q -72 -250 51 -161 l -114 -205 q 23 54 -18 -148 l 164 760 q 495 1019 216 1019 q 695 971 610 1019 l 605 521 z "},"":{"ha":1582,"x_min":-114,"x_max":1560,"o":"m 163 753 q 439 1012 214 1012 q 562 985 507 1012 l 550 924 q 427 951 498 951 q 235 759 273 951 l 226 712 l 559 712 l 568 760 q 899 1019 620 1019 q 1099 971 1014 1019 l 1009 521 q 1362 712 1179 712 q 1522 527 1560 712 q 1236 280 1491 371 l 1435 0 l 1348 0 l 1168 268 l 1176 311 q 1450 521 1423 386 q 1334 651 1476 651 q 996 452 1169 651 l 905 0 l 834 0 l 1021 935 q 886 958 972 958 q 640 766 679 958 l 630 712 l 844 712 l 831 651 l 618 651 l 499 54 q 333 -250 456 -161 l 291 -205 q 428 54 387 -148 l 444 136 l 444 136 l 547 651 l 214 651 l 94 54 q -72 -250 51 -161 l -114 -205 q 23 54 -18 -148 l 163 753 z "},"":{"ha":865,"x_min":-20,"x_max":834,"o":"m 132 359 q 351 54 71 54 q 684 359 623 54 q 471 658 744 658 q 132 359 191 658 m 53 355 q 484 719 125 719 q 762 355 834 719 q 338 -7 689 -7 q 53 355 -20 -7 z "},"":{"ha":579,"x_min":-25,"x_max":451,"o":"m 191 61 l 303 625 l 106 625 l 116 671 l 392 712 l 262 61 l 451 61 l 439 0 l -25 0 l -13 61 l 191 61 z "},"":{"ha":746,"x_min":-25,"x_max":702,"o":"m -25 0 l -13 61 q 586 495 553 330 q 381 658 618 658 q 98 583 245 658 l 112 651 q 393 719 258 719 q 657 495 702 719 q 104 61 621 312 l 604 61 l 592 0 l -25 0 z "},"":{"ha":753,"x_min":-58,"x_max":701,"o":"m 106 671 q 378 712 250 712 q 654 481 701 712 q 444 268 620 308 q 569 54 604 231 q 198 -190 520 -190 q -58 -149 69 -190 l -45 -81 q 210 -129 81 -129 q 498 54 461 -129 q 309 237 534 237 l 121 237 l 133 298 l 319 298 q 583 481 547 298 q 366 651 617 651 q 92 604 237 651 l 106 671 z "},"":{"ha":790,"x_min":-52,"x_max":665,"o":"m 488 -190 l 416 -190 l 458 20 l -52 20 l -39 81 l 490 711 l 568 711 l 37 81 l 471 81 l 544 446 l 615 446 l 542 81 l 665 56 l 657 20 l 530 20 l 488 -190 z "},"":{"ha":777,"x_min":-22,"x_max":710,"o":"m 185 712 l 710 712 l 698 651 l 232 651 l 142 311 q 340 332 273 332 q 630 88 679 332 q 193 -197 573 -197 q -22 -156 71 -197 l -9 -88 q 212 -136 83 -136 q 559 88 514 -136 q 328 271 595 271 q 56 237 195 271 l 185 712 z "},"":{"ha":858,"x_min":-16,"x_max":806,"o":"m 56 353 q 618 931 127 709 l 633 871 q 222 574 353 747 q 464 610 345 610 q 746 312 806 610 q 328 -7 682 -7 q 56 353 -16 -7 m 121 357 q 346 54 60 54 q 677 312 626 54 q 446 549 725 549 q 185 517 307 549 q 121 357 139 449 z "},"":{"ha":719,"x_min":-1,"x_max":704,"o":"m 73 712 l 704 712 l 692 651 l 88 -190 l -1 -190 l 616 651 l 61 651 l 73 712 z "},"":{"ha":848,"x_min":-20,"x_max":829,"o":"m 33 254 q 269 478 66 425 q 146 684 115 529 q 510 911 191 911 q 783 684 829 911 q 574 478 752 529 q 724 254 758 425 q 326 -7 672 -7 q 33 254 -20 -7 m 431 502 q 712 684 675 502 q 492 848 745 848 q 217 684 250 848 q 431 502 180 502 m 342 54 q 654 256 613 54 q 410 441 690 441 q 104 256 141 441 q 342 54 64 54 z "},"":{"ha":858,"x_min":5,"x_max":827,"o":"m 755 358 q 193 -220 684 1 l 178 -161 q 589 136 458 -36 q 347 100 466 100 q 65 399 5 100 q 484 718 129 718 q 755 358 827 718 m 690 354 q 465 656 751 656 q 134 399 185 656 q 366 161 86 161 q 626 194 504 161 q 690 354 672 262 z "},"":{"ha":1025,"x_min":12,"x_max":1024,"o":"m 12 0 l 137 624 q 660 983 209 983 q 1024 922 831 983 l 1013 868 l 602 529 l 642 529 q 911 285 960 529 q 526 -1 854 -1 q 303 46 406 -1 l 315 107 q 539 60 426 60 q 840 285 795 60 q 622 469 876 469 l 503 469 l 513 522 l 938 876 q 648 922 786 922 q 208 624 268 922 l 83 0 l 12 0 z "}}}
